<?xml version="1.0" standalone="no"?>
<!DOCTYPE svg PUBLIC "-//W3C//DTD SVG 20010904//EN"
 "http://www.w3.org/TR/2001/REC-SVG-20010904/DTD/svg10.dtd">
<svg version="1.0" xmlns="http://www.w3.org/2000/svg"
 width="512.000000pt" height="512.000000pt" viewBox="0 0 512.000000 512.000000"
 preserveAspectRatio="xMidYMid meet">

<g transform="translate(0.000000,512.000000) scale(0.100000,-0.100000)"
fill="#000000" stroke="none">
<path d="M2395 4834 c-554 -46 -1050 -267 -1434 -638 -359 -348 -582 -765
-673 -1259 -20 -107 -23 -155 -23 -382 1 -227 3 -275 23 -380 92 -488 296
-879 637 -1220 622 -623 1528 -835 2369 -555 882 294 1503 1100 1555 2019 22
385 -49 759 -209 1098 -329 699 -996 1191 -1761 1298 -114 16 -390 27 -484 19z
m248 -770 c108 -55 154 -182 102 -284 -42 -81 -144 -129 -235 -109 -86 18
-169 113 -170 194 0 82 51 163 125 196 50 23 136 24 178 3z m-1048 -383 c325
-106 652 -213 727 -237 l138 -45 -7 -238 c-3 -130 -3 -250 1 -264 l7 -28 102
3 102 3 3 262 2 262 727 240 c400 132 728 239 729 238 1 -1 -234 -143 -522
-316 -383 -229 -526 -320 -529 -335 -3 -12 -92 -610 -199 -1331 -107 -720
-197 -1321 -199 -1335 -2 -14 -5 451 -6 1033 l-1 1058 -107 -3 -108 -3 0
-1064 c0 -586 -1 -1058 -3 -1050 -1 8 -97 621 -212 1362 -115 742 -210 1350
-212 1352 -2 2 -239 146 -528 320 -289 175 -518 315 -510 313 8 -3 281 -92
605 -197z"/>
</g>
</svg>
