<?xml version="1.0" standalone="no"?>
<!DOCTYPE svg PUBLIC "-//W3C//DTD SVG 20010904//EN"
 "http://www.w3.org/TR/2001/REC-SVG-20010904/DTD/svg10.dtd">
<svg version="1.0" xmlns="http://www.w3.org/2000/svg"
 width="300.000000pt" height="250.000000pt" viewBox="0 0 300.000000 250.000000"
 preserveAspectRatio="xMidYMid meet">

<g transform="translate(0.000000,250.000000) scale(0.100000,-0.100000)"
fill="#000000" stroke="none">
<path d="M1594 2224 c-31 -15 -74 -78 -74 -108 0 -29 28 -72 55 -84 31 -14
134 -16 169 -2 22 8 26 16 26 48 0 50 -48 124 -94 146 -41 19 -43 19 -82 0z
m-14 -58 c-16 -42 -12 -73 11 -95 26 -24 72 -37 77 -22 4 13 59 15 66 2 3 -5
-23 -12 -58 -16 -69 -7 -117 8 -130 40 -12 32 -6 73 15 99 25 32 33 29 19 -8z
m80 19 c16 -20 1 -38 -23 -29 -17 6 -22 25 -10 37 10 11 19 8 33 -8z"/>
<path d="M1323 1965 c-86 -19 -155 -58 -235 -134 -71 -66 -138 -150 -138 -171
0 -19 68 -7 133 23 51 23 54 27 60 67 4 29 16 53 39 78 18 19 27 31 19 27 -10
-6 -12 -4 -6 5 4 7 26 20 49 30 33 14 53 16 102 10 33 -4 71 -13 85 -20 18
-10 159 -102 177 -115 2 -2 -25 -29 -59 -61 -34 -33 -81 -84 -104 -114 -39
-50 -49 -57 -116 -79 -219 -70 -444 -233 -514 -370 -37 -75 -30 -85 53 -78 70
5 155 34 146 48 -3 5 1 6 8 4 8 -3 22 2 33 11 11 8 13 12 5 8 -26 -12 1 10 75
61 44 31 63 40 50 25 -11 -14 8 -1 42 28 34 30 80 75 102 101 37 44 45 49 93
54 118 11 380 -32 476 -79 68 -33 87 -61 78 -115 -5 -29 -2 -48 8 -64 19 -29
119 -106 175 -136 54 -28 68 -17 51 38 -39 124 -205 317 -335 389 -111 61
-238 105 -311 107 -35 1 -64 5 -64 10 0 4 33 44 74 90 74 83 81 87 141 73 17
-4 5 3 -26 17 -49 20 -229 141 -229 152 0 3 28 -14 63 -36 59 -39 201 -111
222 -113 6 -1 9 -9 9 -19 -3 -37 95 -12 164 43 60 47 94 93 95 126 0 25 -28
64 -46 64 -6 0 -2 -7 9 -16 19 -15 19 -16 -1 -9 -11 4 -33 11 -50 15 l-30 8
29 1 c16 1 27 4 23 7 -12 13 -75 -7 -131 -41 -53 -32 -60 -34 -84 -21 -15 8
-66 28 -114 44 -107 38 -208 47 -295 27z m277 -51 c105 -44 199 -81 224 -89
10 -3 16 -8 14 -11 -11 -10 -139 26 -199 56 -34 17 -100 45 -147 61 l-87 30
55 -6 c30 -4 93 -22 140 -41z m369 -13 c12 -8 12 -12 2 -25 -8 -9 -10 -16 -5
-16 19 -1 -40 -40 -60 -40 -15 0 -10 6 19 20 l40 19 -47 -6 c-50 -6 -98 2 -98
16 0 14 63 35 120 39 8 1 21 -2 29 -7z m-853 -113 c-28 -66 -32 -73 -50 -76
-15 -3 -13 4 10 50 14 29 31 59 37 66 19 23 20 2 3 -40z m750 -43 c-18 -14
-76 -21 -76 -10 0 5 59 23 80 24 11 0 10 -3 -4 -14z m-212 -241 c65 -17 233
-91 224 -99 -3 -3 -34 8 -69 24 -83 39 -159 58 -264 67 -47 4 -88 11 -91 15
-9 15 135 10 200 -7z m-305 -88 c-2 -2 -22 -6 -44 -9 -28 -5 -34 -4 -20 3 19
8 73 14 64 6z m-89 -57 c-11 -15 -46 -49 -77 -76 -117 -101 -220 -163 -270
-163 -22 0 -25 -2 -13 -11 12 -8 11 -10 -5 -7 -16 3 -19 10 -17 38 2 19 11 46
20 60 9 14 21 34 27 45 6 11 18 20 27 20 9 0 20 4 25 9 5 5 2 6 -7 2 -39 -19
31 29 75 51 73 38 144 60 192 60 l42 0 -19 -28z m787 -107 c13 -32 10 -57 -6
-47 -5 2 -11 19 -15 36 -3 18 -18 48 -33 68 l-26 36 33 -30 c18 -16 39 -45 47
-63z m31 -107 c24 -38 14 -47 -18 -15 -20 20 -27 50 -12 50 4 0 17 -16 30 -35z
m27 -74 l30 -23 -30 17 c-46 27 -115 85 -115 97 0 6 19 -7 43 -28 23 -22 56
-50 72 -63z"/>
<path d="M1090 1340 c-8 -5 -10 -10 -5 -10 6 0 17 5 25 10 8 5 11 10 5 10 -5
0 -17 -5 -25 -10z"/>
<path d="M1004 1294 c-18 -14 -18 -15 4 -4 12 6 22 13 22 15 0 8 -5 6 -26 -11z"/>
<path d="M1122 1176 c-46 -33 -53 -43 -14 -20 19 10 38 25 44 32 15 17 8 14
-30 -12z"/>
<path d="M490 765 c0 -24 1 -24 110 -27 l109 -3 -125 -105 c-110 -93 -124
-108 -122 -133 l3 -28 190 0 190 0 0 23 c0 23 -2 23 -134 28 l-133 5 131 110
c96 81 131 116 131 133 0 22 0 22 -175 22 l-175 0 0 -25z"/>
<path d="M880 631 l0 -158 45 -6 c68 -10 266 4 302 20 63 29 67 109 6 135 -39
17 -39 17 -15 34 33 23 44 49 32 79 -17 44 -62 55 -225 55 l-145 0 0 -159z
m274 93 c12 -11 13 -20 6 -34 -12 -23 -56 -32 -130 -28 l-55 3 -3 38 -3 37 85
0 c63 0 88 -4 100 -16z m4 -130 c24 -17 29 -43 10 -62 -8 -8 -46 -12 -105 -12
l-93 0 0 45 0 45 83 0 c59 0 89 -5 105 -16z"/>
<path d="M1293 588 l2 -122 30 -1 c29 0 30 2 35 50 5 46 7 50 32 53 22 3 40
-8 82 -48 46 -44 61 -52 96 -54 22 0 40 2 40 5 0 10 -89 89 -100 89 -23 0 -8
18 20 23 39 8 64 46 51 79 -14 36 -58 48 -182 48 l-109 0 3 -122z m217 67 c24
-29 -5 -45 -81 -45 l-69 0 0 30 0 30 69 0 c49 0 72 -4 81 -15z"/>
<path d="M1600 631 c0 -109 11 -136 66 -157 52 -20 151 -15 188 9 27 18 36 58
36 160 l0 67 -35 0 -35 0 0 -88 c0 -102 -12 -122 -73 -122 -62 0 -77 25 -77
125 l0 85 -35 0 -35 0 0 -79z"/>
<path d="M1933 686 c-24 -21 -26 -27 -18 -52 8 -24 21 -32 65 -46 30 -9 72
-20 93 -23 74 -12 52 -65 -27 -65 -29 0 -47 7 -67 26 -20 19 -32 24 -53 18
-30 -7 -31 -12 -11 -41 28 -40 140 -55 215 -30 47 16 68 58 46 92 -15 23 -95
55 -138 55 -50 0 -78 42 -35 54 39 10 64 7 90 -14 25 -20 72 -27 81 -12 6 10
-15 36 -41 50 -12 7 -55 12 -97 12 -65 0 -79 -3 -103 -24z"/>
<path d="M2202 588 l3 -122 30 0 c29 0 30 2 35 53 l5 53 70 0 70 0 3 -50 c3
-47 5 -50 33 -54 16 -3 31 -2 34 0 3 3 5 59 5 124 l0 118 -34 0 c-34 0 -35 -1
-38 -47 l-3 -48 -72 -3 -73 -3 0 51 0 50 -35 0 -36 0 3 -122z"/>
</g>
</svg>
