<svg width="50" height="53" viewBox="0 0 50 53" fill="none" xmlns="http://www.w3.org/2000/svg">
<rect x="2.5" y="4.5" width="45" height="45" rx="22.5" stroke="white" stroke-width="5"/>
<path d="M22.176 25.472L24.816 25.184C25.072 25.184 25.296 25.328 25.488 25.616C25.68 25.904 25.776 26.208 25.776 26.528C25.776 26.848 25.664 27.936 25.44 29.792C25.248 31.648 25.152 33.12 25.152 34.208C25.152 35.264 25.248 35.792 25.44 35.792C25.984 35.76 26.736 35.088 27.696 33.776C28.656 32.432 29.6 30.72 30.528 28.64C31.488 26.56 32.064 25.52 32.256 25.52C32.48 25.52 32.592 25.648 32.592 25.904C32.592 26.8 32.128 28.224 31.2 30.176C28.672 35.552 26.544 38.24 24.816 38.24C23.568 38.24 22.624 37.984 21.984 37.472C21.76 37.248 21.648 35.856 21.648 33.296C21.648 30.736 21.92 28.544 22.464 26.72C20.608 26.72 19.312 26.128 18.576 24.944C18.192 24.336 18 23.648 18 22.88C18 22.112 18.16 21.44 18.48 20.864C18.8 20.288 19.248 20 19.824 20C20.432 20 20.976 20.32 21.456 20.96C21.968 21.568 22.224 22.256 22.224 23.024C22.224 23.792 22 24.56 21.552 25.328C21.68 25.424 21.888 25.472 22.176 25.472Z" fill="white"/>
</svg>
