<?xml version="1.0" encoding="UTF-8" standalone="no"?>
<svg
   xmlns:dc="http://purl.org/dc/elements/1.1/"
   xmlns:cc="http://creativecommons.org/ns#"
   xmlns:rdf="http://www.w3.org/1999/02/22-rdf-syntax-ns#"
   xmlns:svg="http://www.w3.org/2000/svg"
   xmlns="http://www.w3.org/2000/svg"
   xmlns:sodipodi="http://sodipodi.sourceforge.net/DTD/sodipodi-0.dtd"
   xmlns:inkscape="http://www.inkscape.org/namespaces/inkscape"
   id="a594ac37-6d44-4297-8862-1cbd9c01c0b7"
   data-name="Layer 1"
   width="1126.1935"
   height="864.38086"
   viewBox="0 0 1126.1934 864.38086"
   version="1.1"
   sodipodi:docname="code.svg"
   inkscape:version="1.0.2 (e86c870879, 2021-01-15)">
  <metadata
     id="metadata107">
    <rdf:RDF>
      <cc:Work
         rdf:about="">
        <dc:format>image/svg+xml</dc:format>
        <dc:type
           rdf:resource="http://purl.org/dc/dcmitype/StillImage" />
        <dc:title>code review</dc:title>
      </cc:Work>
    </rdf:RDF>
  </metadata>
  <defs
     id="defs105" />
  <sodipodi:namedview
     pagecolor="#ffffff"
     bordercolor="#666666"
     borderopacity="1"
     objecttolerance="10"
     gridtolerance="10"
     guidetolerance="10"
     inkscape:pageopacity="0"
     inkscape:pageshadow="2"
     inkscape:window-width="1920"
     inkscape:window-height="1056"
     id="namedview103"
     showgrid="false"
     inkscape:zoom="0.7310905"
     inkscape:cx="455.06127"
     inkscape:cy="461.79034"
     inkscape:window-x="0"
     inkscape:window-y="0"
     inkscape:window-maximized="1"
     inkscape:current-layer="a594ac37-6d44-4297-8862-1cbd9c01c0b7"
     inkscape:document-rotation="0"
     fit-margin-top="0"
     fit-margin-left="0"
     fit-margin-right="0"
     fit-margin-bottom="0" />
  <title
     id="title2">code review</title>
  <path
     d="M 519.00663,755.93796 C 276.60779,737.49139 -12.464098,549.67168 2.2529825,356.28056 16.970062,162.88944 296.9393,-17.141513 539.33813,1.3050271 781.73696,19.751567 921.27002,381.16702 906.55294,574.55811 891.83586,767.9492 761.40546,774.38453 519.00663,755.93796 Z"
     fill="#f2f2f2"
     id="path4" />
  <ellipse
     cx="565.19354"
     cy="765.38086"
     rx="506"
     ry="31"
     fill="#3f3d56"
     id="ellipse6" />
  <ellipse
     cx="565.19354"
     cy="764.88086"
     rx="431"
     ry="20.5"
     opacity="0.1"
     id="ellipse8" />
  <ellipse
     cx="212.19354"
     cy="845.88086"
     rx="212.19354"
     ry="18.5"
     fill="#3f3d56"
     id="ellipse10" />
  <ellipse
     cx="212.19354"
     cy="845.58246"
     rx="180.74194"
     ry="12.23387"
     opacity="0.1"
     id="ellipse12" />
  <rect
     x="196.19354"
     y="171.38086"
     width="752"
     height="590"
     fill="#3f3d56"
     id="rect14" />
  <path
     d="M 563.63812,252.00999 H 378.1204 a 2.25143,2.25143 0 1 1 0,-4.50285 h 185.51772 a 2.25143,2.25143 0 0 1 0,4.50285 z"
     fill="#f2f2f2"
     id="path16" />
  <path
     d="M 766.71697,276.77571 H 474.93183 a 2.25143,2.25143 0 0 1 0,-4.50286 h 291.78514 a 2.25143,2.25143 0 1 1 0,4.50286 z"
     fill="#f2f2f2"
     id="path18" />
  <path
     d="M 564.53869,301.54142 H 379.02097 a 2.25143,2.25143 0 1 1 0,-4.50286 h 185.51772 a 2.25143,2.25143 0 1 1 0,4.50286 z"
     fill="#f2f2f2"
     id="path20" />
  <path
     d="M 766.71697,301.99171 H 581.19926 a 2.25143,2.25143 0 0 1 0,-4.50286 h 185.51771 a 2.25143,2.25143 0 1 1 0,4.50286 z"
     fill="#f2f2f2"
     id="path22" />
  <path
     d="M 564.98897,326.30714 H 379.47126 a 2.25143,2.25143 0 0 1 0,-4.50286 h 185.51771 a 2.25143,2.25143 0 1 1 0,4.50286 z"
     fill="#f2f2f2"
     id="path24" />
  <path
     d="M 565.43926,351.07285 H 379.92154 a 2.25143,2.25143 0 0 1 0,-4.50286 h 185.51772 a 2.25143,2.25143 0 1 1 0,4.50286 z"
     fill="#f2f2f2"
     id="path26" />
  <path
     d="m 649.64269,252.46028 h -53.13372 a 2.25143,2.25143 0 0 1 0,-4.50286 h 53.13372 a 2.25143,2.25143 0 1 1 0,4.50286 z"
     fill="#f2f2f2"
     id="path28" />
  <path
     d="m 649.64269,326.30714 h -53.13372 a 2.25143,2.25143 0 0 1 0,-4.50286 h 53.13372 a 2.25143,2.25143 0 1 1 0,4.50286 z"
     fill="#f2f2f2"
     id="path30" />
  <path
     d="m 649.64269,350.62256 h -53.13372 a 2.25143,2.25143 0 1 1 0,-4.50285 h 53.13372 a 2.25143,2.25143 0 1 1 0,4.50285 z"
     fill="#f2f2f2"
     id="path32" />
  <path
     d="m 738.79926,350.62256 h -53.13372 a 2.25143,2.25143 0 0 1 0,-4.50285 h 53.13372 a 2.25143,2.25143 0 1 1 0,4.50285 z"
     fill="#f2f2f2"
     id="path34" />
  <path
     d="m 430.80383,276.77571 h -53.13371 a 2.25143,2.25143 0 0 1 0,-4.50286 h 53.13371 a 2.25143,2.25143 0 0 1 0,4.50286 z"
     fill="#f2f2f2"
     id="path36" />
  <path
     d="M 563.86326,616.74142 H 378.34554 a 2.25143,2.25143 0 0 1 0,-4.50286 h 185.51772 a 2.25143,2.25143 0 0 1 0,4.50286 z"
     fill="#f2f2f2"
     id="path38" />
  <path
     d="M 562.96269,666.27285 H 377.44497 a 2.25143,2.25143 0 1 1 0,-4.50286 h 185.51772 a 2.25143,2.25143 0 0 1 0,4.50286 z"
     fill="#f2f2f2"
     id="path40" />
  <path
     d="M 563.41297,691.03856 H 377.89526 a 2.25143,2.25143 0 1 1 0,-4.50285 h 185.51771 a 2.25143,2.25143 0 1 1 0,4.50285 z"
     fill="#f2f2f2"
     id="path42" />
  <path
     d="m 642.66326,666.72314 h -53.13372 a 2.25143,2.25143 0 0 1 0,-4.50286 h 53.13372 a 2.25143,2.25143 0 0 1 0,4.50286 z"
     fill="#f2f2f2"
     id="path44" />
  <path
     d="m 642.66326,691.03856 h -53.13372 a 2.251425,2.251425 0 0 1 0,-4.50285 h 53.13372 a 2.251425,2.251425 0 1 1 0,4.50285 z"
     fill="#f2f2f2"
     id="path46" />
  <path
     d="m 731.81983,666.72314 h -53.13371 a 2.25143,2.25143 0 1 1 0,-4.50286 h 53.13371 a 2.25143,2.25143 0 0 1 0,4.50286 z"
     fill="#f2f2f2"
     id="path48" />
  <path
     d="M 766.94212,641.50714 H 475.15697 a 2.25143,2.25143 0 0 1 0,-4.50286 h 291.78515 a 2.25143,2.25143 0 0 1 0,4.50286 z"
     fill="#f2f2f2"
     id="path50" />
  <path
     d="m 431.02897,641.50714 h -53.13371 a 2.25143,2.25143 0 0 1 0,-4.50286 h 53.13371 a 2.25143,2.25143 0 0 1 0,4.50286 z"
     fill="#f2f2f2"
     id="path52" />
  <path
     d="M 766.94212,716.25456 H 475.15697 a 2.25143,2.25143 0 1 1 0,-4.50285 h 291.78515 a 2.251425,2.251425 0 0 1 0,4.50285 z"
     fill="#f2f2f2"
     id="path54" />
  <path
     d="m 431.02897,716.25456 h -53.13371 a 2.25143,2.25143 0 1 1 0,-4.50285 h 53.13371 a 2.25143,2.25143 0 1 1 0,4.50285 z"
     fill="#f2f2f2"
     id="path56" />
  <polygon
     points="519.06,543.42 535.27,527.21 480.786,472.725 535.72,417.79 519.06,401.13 447.014,472.275 "
     fill="#ffffff"
     id="polygon58"
     transform="translate(0,9.3808522)" />
  <polygon
     points="625.327,543.42 609.117,527.21 663.602,472.725 608.667,417.79 625.327,401.13 697.373,472.275 "
     fill="#ffffff"
     id="polygon60"
     transform="translate(0,9.3808522)" />
  <circle
     cx="216.19354"
     cy="186.38086"
     r="9"
     fill="#ffffff"
     id="circle62" />
  <circle
     cx="240.19354"
     cy="186.38086"
     r="9"
     fill="#ffffff"
     id="circle64" />
  <circle
     cx="264.19354"
     cy="186.38086"
     r="9"
     fill="#ffffff"
     id="circle66" />
  <rect
     x="196.19354"
     y="201.38086"
     width="752"
     height="3"
     opacity="0.1"
     id="rect68" />
  <path
     d="m 1126.1936,616.83442 c 0,63.77108 -37.9109,86.03756 -84.6764,86.03756 -46.76543,0 -84.67636,-22.26648 -84.67636,-86.03756 0,-63.77108 84.67636,-144.898 84.67636,-144.898 0,0 84.6764,81.12692 84.6764,144.898 z"
     fill="#f2f2f2"
     id="path70" />
  <polygon
     points="1075.391,564.338 1039.436,621.993 1039.826,597.995 1064.699,550.226 1039.929,591.645 1039.929,591.645 1040.63,548.484 1067.265,510.453 1040.74,541.697 1041.178,462.556 1038.425,567.325 1038.651,563.003 1011.571,521.552 1038.217,571.3 1035.694,619.503 1035.619,618.223 1004.4,574.602 1035.524,622.743 1035.209,628.771 1035.152,628.862 1035.178,629.357 1028.776,751.653 1037.329,751.653 1038.355,688.485 1069.404,640.461 1038.433,683.736 1039.3,630.365 "
     fill="#3f3d56"
     id="polygon72"
     transform="translate(0,9.3808522)" />
  <path
     d="m 122.62158,760.47229 a 43.12568,43.12568 0 0 1 -8.17805,3.50253 c -5.07883,1.38739 -10.50718,0.8784 -15.63716,2.06274 -2.10034,0.4849 -4.38629,1.49916 -5.05424,3.54866 -0.48995,1.50331 0.0431,3.12668 0.55347,4.62317 5.66852,16.61991 9.08515,34.26625 18.12518,49.32052 a 74.64075,74.64075 0 0 0 13.99269,16.98766 c 2.05512,1.85228 4.38405,3.6643 7.13541,3.95491 a 7.24769,7.24769 0 0 0 7.37055,-10.182 c -0.81056,-1.8011 -2.31727,-3.19619 -3.289,-4.91569 a 18.757,18.757 0 0 1 -1.81948,-6.99071 c -0.89312,-7.10831 -1.7535,-14.53764 0.70942,-21.26517 1.6519,-4.5122 4.68207,-8.35894 7.20641,-12.4475 2.52434,-4.08856 4.62171,-8.7719 4.06,-13.544 -0.38332,-3.25659 -1.97189,-6.23685 -3.65,-9.054 -1.68146,-2.8227 -5.00472,-10.40837 -8.38287,-11.35035 -3.50667,-0.9778 -10.08414,4.1819 -13.14233,5.74923 z"
     fill="#2f2e41"
     id="path74" />
  <path
     d="m 215.05658,817.88092 a 14.01882,14.01882 0 0 1 -0.66321,4.74531 c -1.05756,2.79253 -3.681,4.70608 -5.03631,7.36685 -1.885,3.70061 -1.03063,8.17372 0.21823,12.13454 0.78295,2.48316 1.8099,5.067 3.91246,6.60271 a 12.89278,12.89278 0 0 0 5.95383,1.90719 c 18.03627,2.49619 36.35793,1.064 54.5586,1.587 3.31731,0.0953 6.82944,0.21147 9.72521,-1.40969 2.89577,-1.62116 4.686,-5.6968 2.71651,-8.36789 -1.76854,-2.39854 -5.26537,-2.37621 -8.24208,-2.51756 a 33.912,33.912 0 0 1 -20.913,-8.61479 15.11172,15.11172 0 0 1 -2.93335,-3.37658 20.75292,20.75292 0 0 1 -1.53436,-3.51757 156.79876,156.79876 0 0 0 -9.08354,-20.11857 c -0.97877,-1.81492 -2.087,-3.705 -3.906,-4.67631 a 10.32271,10.32271 0 0 0 -4.23932,-0.92554 c -4.53631,-0.294 -16.28319,-1.83785 -19.791,1.68963 -3.24111,3.25934 -0.67081,13.35151 -0.74267,17.49127 z"
     fill="#2f2e41"
     id="path76" />
  <circle
     cx="242.97079"
     cy="386.1012"
     r="28.97496"
     fill="#fbbebe"
     id="circle78"
     style="fill:#ae6e79;fill-opacity:1" />
  <path
     d="m 216.80577,410.02669 c -1.72342,4.6139 -4.64671,8.94711 -8.90039,11.42995 l 40.0746,8.17466 a 42.45319,42.45319 0 0 1 -0.56181,-17.869 10.30012,10.30012 0 0 0 0.23975,-4.409 c -0.75354,-2.90746 -4.02646,-4.30693 -6.95489,-4.97449 -7.31406,-1.66731 -13.7821,-2.56141 -20.57892,-5.79173 -2.07754,3.55656 -1.78665,9.33902 -3.31834,13.43961 z"
     fill="#fbbebe"
     id="path80"
     style="fill:#ae6e79;fill-opacity:1" />
  <path
     d="m 207.57062,410.6077 a 31.33845,31.33845 0 0 1 27.31312,0.71368 c 5.13776,2.70749 9.39191,6.79432 13.57151,10.82645 3.85264,3.71671 7.96244,7.97238 8.23588,13.31859 0.13245,2.58993 -0.67591,5.12286 -1.08406,7.68385 a 25.76566,25.76566 0 0 0 13.78,26.46946 c 3.1836,5.30339 3.84065,11.7287 3.88948,17.91408 0.185,23.43592 -7.20915,47.16094 -1.93041,69.99538 1.23937,5.36117 3.16161,10.55391 4.2323,15.95129 1.38681,6.991 1.31835,14.17959 2.04391,21.26977 a 95.26625,95.26625 0 0 0 5.11322,22.49547 c -1.744,2.7737 -5.37357,3.83728 -8.64228,3.61264 -3.26871,-0.22464 -6.3252,-1.64311 -9.24191,-3.13567 -14.12327,-7.22727 -27.05918,-16.75729 -41.687,-22.89955 -9.67764,-4.06367 -19.98746,-6.59488 -29.37589,-11.28823 -9.38843,-4.69335 -18.11988,-12.14194 -20.99049,-22.238 -1.24124,-4.36546 -1.31765,-8.96508 -1.3854,-13.50306 -0.28534,-19.11376 -0.55046,-38.43617 3.61,-57.09382 3.669,-16.45362 10.74145,-32.1938 12.28438,-48.98077 0.50223,-5.46424 0.51295,-11.31378 3.56594,-15.87332 4.3152,-6.44464 13.63248,-8.11366 16.6977,-15.23824 z"
     fill="#2f2e41"
     id="path82" />
  <path
     d="m 226.49157,386.51017 c 1.70735,-2.22683 5.00024,-2.53051 7.72786,-1.87181 2.72762,0.6587 5.24265,2.06449 7.99738,2.59858 a 4.67544,4.67544 0 0 0 3.74325,-0.52575 5.44429,5.44429 0 0 0 1.61547,-3.57028 68.16318,68.16318 0 0 0 0.67089,-17.38048 5.14652,5.14652 0 0 1 0.15877,-2.43744 c 0.682,-1.6434 2.7627,-2.03456 4.46209,-2.56176 a 13.31574,13.31574 0 0 0 9.01289,-13.63308 5.42087,5.42087 0 0 0 -1.6567,-3.74055 c -1.17523,-0.95765 -2.82014,-1.01649 -4.33609,-1.02867 q -11.68307,-0.0938 -23.36661,0.006 c -2.88278,0.0246 -5.91029,0.0955 -8.40937,1.53276 -1.84769,1.06263 -3.22171,2.773 -4.88046,4.11154 -4.32621,3.49111 -10.17785,4.20145 -15.44116,5.99071 a 15.30822,15.30822 0 0 0 -6.76753,4.03565 c -1.75035,1.99965 -2.5919,4.97311 -1.49261,7.39258 a 26.25205,26.25205 0 0 0 1.88685,2.9039 c 3.10463,4.96416 1.03778,11.40306 1.50139,17.23972 0.57892,7.28838 11.36495,19.11157 18.67879,20.83626 11.80771,2.78439 4.9861,-15.11326 8.8949,-19.89753 z"
     fill="#2f2e41"
     id="path84" />
  <path
     d="m 210.13427,706.06345 c 0.74512,5.32168 1.7007,10.66172 1.44525,16.02924 -0.35664,7.49365 -3.05912,14.71381 -3.55872,22.19929 -0.37315,5.59084 0.48989,11.24214 -0.28652,16.79137 -0.49715,3.55325 -1.65585,6.97849 -2.37315,10.49392 a 43.39491,43.39491 0 0 0 6.97307,33.26545 5.44788,5.44788 0 0 0 2.02339,1.961 5.7137,5.7137 0 0 0 2.50788,0.3318 179.9472,179.9472 0 0 0 25.17023,-2.28749 2.41432,2.41432 0 0 0 1.61622,-0.71311 2.26567,2.26567 0 0 0 0.351,-0.954 c 1.54379,-7.936 -1.97676,-15.89332 -2.872,-23.92837 -0.95593,-8.57968 1.10271,-17.17733 3.14612,-25.56477 a 113.54767,113.54767 0 0 1 3.46738,-12.22773 c 0.9877,-2.69735 2.18054,-5.32086 3.0366,-8.06284 a 61.46035,61.46035 0 0 0 2.202,-13.20261 q 0.89161,-10.57524 0.94476,-21.19892 a 88.95779,88.95779 0 0 0 -1.66511,-20.01 c -1.878,-8.338 -5.7238,-16.08066 -9.53591,-23.73028 a 15.02852,15.02852 0 0 0 -5.61784,2.67008 125.37991,125.37991 0 0 1 -15.35,8.48057 c -3.56655,1.65676 -10.52195,2.83342 -12.78554,6.28577 -2.23228,3.40461 -0.792,10.35082 -0.62145,14.10572 q 0.43903,9.66756 1.78234,19.26591 z"
     fill="#2f2e41"
     id="path86" />
  <path
     d="m 210.13427,706.06345 c 0.74512,5.32168 1.7007,10.66172 1.44525,16.02924 -0.35664,7.49365 -3.05912,14.71381 -3.55872,22.19929 -0.37315,5.59084 0.48989,11.24214 -0.28652,16.79137 -0.49715,3.55325 -1.65585,6.97849 -2.37315,10.49392 a 43.39491,43.39491 0 0 0 6.97307,33.26545 5.44788,5.44788 0 0 0 2.02339,1.961 5.7137,5.7137 0 0 0 2.50788,0.3318 179.9472,179.9472 0 0 0 25.17023,-2.28749 2.41432,2.41432 0 0 0 1.61622,-0.71311 2.26567,2.26567 0 0 0 0.351,-0.954 c 1.54379,-7.936 -1.97676,-15.89332 -2.872,-23.92837 -0.95593,-8.57968 1.10271,-17.17733 3.14612,-25.56477 a 113.54767,113.54767 0 0 1 3.46738,-12.22773 c 0.9877,-2.69735 2.18054,-5.32086 3.0366,-8.06284 a 61.46035,61.46035 0 0 0 2.202,-13.20261 q 0.89161,-10.57524 0.94476,-21.19892 a 88.95779,88.95779 0 0 0 -1.66511,-20.01 c -1.878,-8.338 -5.7238,-16.08066 -9.53591,-23.73028 a 15.02852,15.02852 0 0 0 -5.61784,2.67008 125.37991,125.37991 0 0 1 -15.35,8.48057 c -3.56655,1.65676 -10.52195,2.83342 -12.78554,6.28577 -2.23228,3.40461 -0.792,10.35082 -0.62145,14.10572 q 0.43903,9.66756 1.78234,19.26591 z"
     opacity="0.1"
     id="path88" />
  <path
     d="m 170.96115,592.39885 c -3.84776,10.35941 1.80816,21.55375 6.722,31.45209 12.106,24.38615 20.51267,50.40745 28.87447,76.31727 0.62635,1.9408 1.2522,4.05818 0.55393,5.97428 a 7.82535,7.82535 0 0 1 -2.82176,3.347 c -5.76549,4.37915 -13.10677,5.93873 -19.97473,8.2298 a 90.18354,90.18354 0 0 0 -18.94265,8.87995 c -4.97678,3.08387 -9.63891,6.64386 -14.29189,10.1975 l -14.812,11.31248 a 9.903,9.903 0 0 0 -2.47578,2.39658 c -1.4286,2.24131 -0.84344,5.16734 -0.13218,7.72829 a 131.43212,131.43212 0 0 0 7.25213,19.792 6.911,6.911 0 0 0 2.63,3.44664 c 2.31193,1.24241 5.13971,-0.405 6.90515,-2.34714 1.76544,-1.94214 3.29242,-4.35894 5.78108,-5.1927 2.48574,-0.83278 5.2216,0.17573 7.81767,-0.18871 4.19867,-0.58943 6.98621,-4.45724 10.01273,-7.42649 12.36533,-12.13133 33.01009,-11.25124 46.61244,-21.97723 a 59.22781,59.22781 0 0 1 6.231,-4.86753 c 2.29954,-1.35929 4.90732,-2.10533 7.29316,-3.30673 7.25663,-3.65411 11.81865,-11.20854 14.26244,-18.957 2.44379,-7.74846 3.14074,-15.92786 4.89686,-23.86053 0.90786,-4.10092 2.10291,-8.15769 2.50676,-12.33845 a 66.09392,66.09392 0 0 0 -0.25308,-11.6661 l -4.90813,-60.71545 c -0.3996,-4.94331 -0.79987,-9.89239 -1.57574,-14.79076 -14.57664,0.5211 -29.14284,1.10754 -43.72778,1.28 -11.60557,0.13717 -23.42439,0.94848 -34.4361,-2.71906 z"
     fill="#2f2e41"
     id="path90" />
  <path
     d="m 165.6025,606.60185 c 1.97737,3.18011 6.79016,3.11442 10.10427,1.37092 3.31411,-1.7435 5.8888,-4.67259 9.21071,-6.40118 4.46387,-2.32282 9.74611,-2.23547 14.77617,-2.0934 7.96357,0.22492 16.02491,0.46432 23.68692,2.64671 7.92486,2.25727 15.63969,6.60332 23.834,5.7363 1.4259,-0.15087 2.98505,-0.55979 3.76106,-1.76551 a 5.54448,5.54448 0 0 0 0.61966,-2.83582 l 0.26794,-7.159 a 6.46407,6.46407 0 0 0 -0.57,-3.62533 6.08162,6.08162 0 0 0 -2.71588,-2.07944 c -11.66338,-5.64612 -24.96458,-6.69742 -37.91511,-7.14107 q -9.87458,-0.33828 -19.75748,-0.27827 c -5.591,0.0341 -12.303,-0.77486 -17.73873,0.71906 -7.2951,2.00497 -11.26456,16.95386 -7.56353,22.90603 z"
     fill="#2f2e41"
     id="path92" />
  <path
     d="m 238.83926,419.10641 c -15.28217,-0.13537 -29.131,-10.22251 -44.4118,-10.46824 a 11.51447,11.51447 0 0 0 -5.39263,0.93046 c -2.12932,1.07263 -3.52928,3.14668 -5.14679,4.89829 -4.51828,4.89285 -11.0612,7.50531 -15.703,12.28109 -4.35234,4.47793 -6.77287,11.14957 -5.05456,17.15307 1.71831,6.0035 8.20353,10.60849 14.279,9.16523 a 36.80081,36.80081 0 0 1 14.33684,-19.47946 72.88717,72.88717 0 0 1 11.20533,-5.88209 c 6.86792,-3.11167 14.54778,-6.28282 21.71787,-3.95031 a 30.63793,30.63793 0 0 1 7.40918,4.04034 l 11.95388,8.03 c -1.39288,-5.494 -2.64537,-11.65557 -5.19332,-16.71838 z"
     fill="#ffffff"
     id="path94" />
  <path
     d="m 175.6492,447.75479 c -2.0293,2.53158 0.894,6.19965 0.44656,9.41317 -0.29726,2.13512 -2.05431,3.76539 -2.786,5.79313 -0.75791,2.10039 -0.356,4.427 -0.64344,6.64132 a 28.48866,28.48866 0 0 1 -1.2751,4.72964 84.97452,84.97452 0 0 0 -2.68638,14.02574 l -2.6749,19.97555 a 75.68111,75.68111 0 0 0 -0.846,9.07789 27.10744,27.10744 0 0 1 -0.45211,6.78677 c -0.59232,2.183 -1.90386,4.09275 -2.78616,6.17547 -0.8823,2.08272 -1.29127,4.602 -0.0994,6.52435 -3.99144,3.32456 -5.17826,9.85376 -2.38732,14.235 a 7.89943,7.89943 0 0 1 1.23013,2.26518 5.81983,5.81983 0 0 1 -0.54176,3.34034 l -2.7047,7.20665 c -0.69232,1.84469 -0.91128,4.65314 1.01352,5.07422 a 17.00617,17.00617 0 0 0 -3.65133,5.76681 6.86617,6.86617 0 0 0 0.97247,6.50559 8.28879,8.28879 0 0 1 1.69441,2.0563 5.47266,5.47266 0 0 1 -0.19586,3.24315 11.90573,11.90573 0 0 0 1.473,9.33345 8.37146,8.37146 0 0 0 8.41846,3.60852 c 5.41045,-1.22031 10.27226,-3.1467 15.72755,-2.14571 11.746,2.15529 23.52979,4.31989 34.90618,7.952 12.984,4.1454 25.55606,10.22443 39.12586,11.50045 a 3.79783,3.79783 0 0 0 2.61662,-0.407 3.93069,3.93069 0 0 0 1.21,-2.48763 q 2.097,-9.83241 4.19405,-19.66481 a 202.36327,202.36327 0 0 0 3.85525,-22.02765 c 0.47742,-4.78125 0.61351,-9.58923 0.7493,-14.39234 l 1.08084,-38.23106 a 38.19731,38.19731 0 0 0 -2.2,-16.61961 l -6.21748,-19.8483 c -3.54813,-11.32685 -11.68773,-21.37125 -14.58576,-32.8816 -1.83417,-7.285 -3.18913,-15.10292 -8.10789,-20.781 -7.01237,-8.09492 -19.1447,-9.354 -29.76373,-7.96222 -4.79727,0.62876 -9.63561,1.71382 -13.78522,4.20176 -4.79825,2.87682 -8.33308,7.40861 -11.75286,11.8363 -2.81837,3.64905 -5.68703,6.5826 -8.57083,10.18018 z"
     fill="#ffffff"
     id="path96" />
  <path
     d="m 200.44412,560.20433 c 0.87491,3.77256 2.71233,7.25107 3.837,10.95684 1.88437,6.20878 1.72443,12.89561 3.60511,19.10551 0.78937,2.60646 1.93305,5.109 2.49961,7.77276 1.32091,6.21057 -0.60773,12.6356 -3.0035,18.51576 -2.39577,5.88016 -5.31347,11.678 -6.0912,17.97962 -0.54778,4.43849 0.23913,9.45012 3.66018,12.33051 3.55169,2.99038 8.71308,2.78787 13.33894,2.39 a 14.01584,14.01584 0 0 0 4.84121,-1.00807 c 3.53766,-1.67361 5.02767,-5.85984 5.85461,-9.685 2.77128,-12.81912 1.97957,-26.10621 1.17422,-39.19671 l -2.10613,-34.2342 c -0.40547,-6.59081 -0.83988,-13.31809 -2.87081,-19.64644 -0.73878,-2.302 -2.02646,-6.95382 -4.12917,-8.42371 -2.0826,-1.45584 -8.02994,-1.52068 -10.60853,-1.64177 -12.09781,-0.56814 -11.96219,16.31742 -10.00154,24.7849 z"
     fill="#fbbebe"
     id="path98"
     style="fill:#ae6e79;fill-opacity:1" />
  <path
     d="m 213.84814,433.80435 c -2.47072,-1.29382 -5.58357,-0.736 -7.97179,0.70446 a 24.56772,24.56772 0 0 0 -5.9719,5.79818 c -5.33892,6.51687 -10.99072,13.99464 -10.19889,22.38194 0.29689,3.14472 1.501,6.12087 2.31737,9.17226 3.57944,13.37964 -0.37874,27.53015 0.0754,41.37287 0.26243,7.99873 2.00293,15.86638 3.7363,23.67945 0.35375,1.59451 0.92034,3.44035 2.46284,3.97727 1.15873,0.40334 2.41033,-0.11521 3.55715,-0.55127 a 28.371,28.371 0 0 1 25.96315,3.27234 c 2.865,-1.52869 1.79145,-6.36261 1.14913,-9.54579 -1.90842,-9.45767 0.68218,-19.21438 3.82837,-28.3353 3.14619,-9.12092 6.91058,-18.23032 7.43185,-27.86453 0.59061,-10.91607 -3.02875,-21.57071 -6.59987,-31.903 -0.77948,-2.25528 -1.63134,-4.6202 -3.43861,-6.17831 a 13.66523,13.66523 0 0 0 -5.20292,-2.377 c -3.79313,-1.12113 -7.63356,-1.76865 -11.13758,-3.60357 z"
     fill="#2f2e41"
     id="path100" />
</svg>
