<?xml version="1.0" encoding="UTF-8" standalone="no"?>
<svg
   xmlns:dc="http://purl.org/dc/elements/1.1/"
   xmlns:cc="http://creativecommons.org/ns#"
   xmlns:rdf="http://www.w3.org/1999/02/22-rdf-syntax-ns#"
   xmlns:svg="http://www.w3.org/2000/svg"
   xmlns="http://www.w3.org/2000/svg"
   xmlns:sodipodi="http://sodipodi.sourceforge.net/DTD/sodipodi-0.dtd"
   xmlns:inkscape="http://www.inkscape.org/namespaces/inkscape"
   width="80.683838mm"
   height="54.061176mm"
   viewBox="0 0 80.683838 54.061176"
   version="1.1"
   id="svg8"
   inkscape:version="1.0.2 (e86c870879, 2021-01-15)"
   sodipodi:docname="favicon.svg">
  <defs
     id="defs2">
    <clipPath
       clipPathUnits="userSpaceOnUse"
       id="clipPath883">
      <path
         d="M 0,2000 H 2000 V 0 H 0 Z"
         id="path881" />
    </clipPath>
    <clipPath
       clipPathUnits="userSpaceOnUse"
       id="clipPath909">
      <path
         d="M 0,2000 H 2000 V 0 H 0 Z"
         id="path907" />
    </clipPath>
    <clipPath
       clipPathUnits="userSpaceOnUse"
       id="clipPath931">
      <path
         d="M 0,2000 H 2000 V 0 H 0 Z"
         id="path929" />
    </clipPath>
    <clipPath
       clipPathUnits="userSpaceOnUse"
       id="clipPath947">
      <path
         d="M 0,2000 H 2000 V 0 H 0 Z"
         id="path945" />
    </clipPath>
    <clipPath
       clipPathUnits="userSpaceOnUse"
       id="clipPath983">
      <path
         d="M 0,2000 H 2000 V 0 H 0 Z"
         id="path981" />
    </clipPath>
    <clipPath
       clipPathUnits="userSpaceOnUse"
       id="clipPath1037">
      <path
         d="M 0,2000 H 2000 V 0 H 0 Z"
         id="path1035" />
    </clipPath>
    <clipPath
       clipPathUnits="userSpaceOnUse"
       id="clipPath1067">
      <path
         d="M 0,2000 H 2000 V 0 H 0 Z"
         id="path1065" />
    </clipPath>
  </defs>
  <sodipodi:namedview
     id="base"
     pagecolor="#ffffff"
     bordercolor="#666666"
     borderopacity="1.0"
     inkscape:pageopacity="0.0"
     inkscape:pageshadow="2"
     inkscape:zoom="2.8"
     inkscape:cx="174.74703"
     inkscape:cy="109.99743"
     inkscape:document-units="mm"
     inkscape:current-layer="g875"
     inkscape:document-rotation="0"
     showgrid="false"
     fit-margin-top="0"
     fit-margin-left="0"
     fit-margin-right="0"
     fit-margin-bottom="0"
     inkscape:window-width="1920"
     inkscape:window-height="1056"
     inkscape:window-x="0"
     inkscape:window-y="0"
     inkscape:window-maximized="1" />
  <metadata
     id="metadata5">
    <rdf:RDF>
      <cc:Work
         rdf:about="">
        <dc:format>image/svg+xml</dc:format>
        <dc:type
           rdf:resource="http://purl.org/dc/dcmitype/StillImage" />
        <dc:title></dc:title>
      </cc:Work>
    </rdf:RDF>
  </metadata>
  <g
     inkscape:label="Layer 1"
     inkscape:groupmode="layer"
     id="layer1"
     transform="translate(-54.226787,-35.915796)">
    <g
       id="g875"
       inkscape:label="RK"
       transform="matrix(0.35277777,0,0,-0.35277777,-213.61479,490.16662)">
      <g
         id="g877"
         transform="translate(-538.26669,273.66225)">
        <g
           id="g879"
           clip-path="url(#clipPath883)">
          <g
             id="g885"
             transform="translate(433.6813,1152.7142)">
            <path
               d="m 0,0 h -93.758 c -21.958,0 -39.758,17.8 -39.758,39.758 v 93.758 c 0,21.958 17.8,39.759 39.758,39.759 H 0 c 21.958,0 39.758,-17.801 39.758,-39.759 V 39.758 C 39.758,17.8 21.958,0 0,0"
               style="fill:#000000;fill-opacity:1;fill-rule:nonzero;stroke:none"
               id="path887" />
          </g>
          <g
             id="g889"
             transform="translate(930.32,897.92)">
            <path
               d="m 0,0 -24.16,-16.5 v -40.11 l -0.06,-0.51 c -0.81,-6.27 -6.28,-17.83 -21.07,-19.08 h -16.47 v 15.77 h 13.77 c 5.73,0 7.44,3.01 7.95,5.09 V -8.11 L -28.18,0 -40.04,8.1 v 47.23 c -0.51,2.08 -2.22,5.09 -7.95,5.09 h -13.77 v 16.22 h 15.89 v -0.4 c 15.23,-1 20.83,-12.77 21.65,-19.13 l 0.06,-0.51 V 16.49 Z"
               style="fill:#000000;fill-opacity:1;fill-rule:nonzero;stroke:none"
               id="path891" />
          </g>
          <g
             id="g893"
             transform="translate(698.42,906.02)">
            <path
               d="M 0,0 -11.87,-8.1 0,-16.21 v -47.23 c 0.5,-2.08 2.21,-5.09 7.94,-5.09 h 13.77 v -15.9 H 5.82 v 0.08 c -15.22,1 -20.82,12.78 -21.65,19.13 l -0.06,0.51 V -24.6 L -40.04,-8.1 -15.89,8.39 V 48.5 l 0.06,0.51 C -15,55.37 -9.4,67.14 5.82,68.14 v 0.4 H 21.71 V 52.32 H 7.94 C 2.21,52.32 0.5,49.31 0,47.23 Z"
               style="fill:#000000;fill-opacity:1;fill-rule:nonzero;stroke:none"
               id="path895" />
          </g>
        </g>
      </g>
      <text
         transform="scale(1.0319444,-0.96904443)"
         style="font-variant:normal;font-weight:normal;font-stretch:normal;font-size:138.86px;font-family:Squaresharps;-inkscape-font-specification:Squaresharps;writing-mode:lr-tb;fill:#000000;fill-opacity:1;fill-rule:nonzero;stroke:none;stroke-width:0.969044"
         id="text901"
         x="167.13741"
         y="-1170.2623"><tspan
           x="167.13741"
           y="-1170.2623"
           id="tspan897"
           style="stroke-width:0.969044">r</tspan><tspan
           x="249.89803"
           y="-1170.4012"
           id="tspan899"
           style="stroke-width:0.969044">k</tspan></text>
      <g
         id="g903"
         transform="translate(-538.26669,273.66225)">
        <g
           id="g905"
           clip-path="url(#clipPath909)">
          <g
             id="g911"
             transform="translate(875.0944,860.2165)">
            <path
               d="m 0,0 h -12.296 l 5.929,-10.021 H 10.021 V 38.014 86.048 H -6.367 L -12.296,76.027 H 0 V 38.014 Z"
               style="fill:#1c1c1c;fill-opacity:1;fill-rule:nonzero;stroke:none"
               id="path913" />
          </g>
          <g
             id="g915"
             transform="translate(712.3467,936.2436)">
            <path
               d="M 0,0 H 12.296 L 6.367,10.021 H -10.021 V -38.014 -86.048 H 6.367 l 5.929,10.021 H 0 v 38.013 z"
               style="fill:#1c1c1c;fill-opacity:1;fill-rule:nonzero;stroke:none"
               id="path917" />
          </g>
        </g>
      </g>
      <text
         transform="matrix(1,0,0,-0.9390471,227.0229,845.5518)"
         style="font-variant:normal;font-weight:normal;font-stretch:normal;font-size:143.296px;font-family:Squaresharps;-inkscape-font-specification:Squaresharps;writing-mode:lr-tb;fill:#000000;fill-opacity:1;fill-rule:nonzero;stroke:none"
         id="text923"><tspan
           x="0"
           y="0"
           id="tspan919">r</tspan><tspan
           x="85.404358"
           y="-0.1432959"
           id="tspan921">k</tspan></text>
      <g
         id="g925">
        <g
           id="g927"
           clip-path="url(#clipPath931)">
          <g
             id="g933"
             transform="translate(391.3741,845.3949)">
            <path
               d="m 0,0 h -12.296 l 5.929,-10.021 H 10.021 V 38.014 86.048 H -6.367 L -12.296,76.027 H 0 V 38.014 Z"
               style="fill:#1c1c1c;fill-opacity:1;fill-rule:nonzero;stroke:none"
               id="path935" />
          </g>
          <g
             id="g937"
             transform="translate(228.6265,921.422)">
            <path
               d="M 0,0 H 12.296 L 6.367,10.021 H -10.021 V -38.014 -86.048 H 6.367 l 5.929,10.021 H 0 v 38.013 z"
               style="fill:#1c1c1c;fill-opacity:1;fill-rule:nonzero;stroke:none"
               id="path939" />
          </g>
        </g>
      </g>
      <g
         id="g941"
         transform="translate(79.367983,521.48766)"
         style="fill:#ececec">
        <g
           id="g943"
           clip-path="url(#clipPath947)"
           style="fill:#ececec">
          <g
             id="g949"
             transform="translate(908.5781,689.4476)"
             style="fill:#ececec">
            <path
               d="m 0,0 -24.16,-16.5 c -2.088,-32.34 12.032,-63.658 -37.6,-59.7 v 15.77 c 5.093,0.353 21.473,-2.051 21.719,5.09 10e-4,0 10e-4,47.23 10e-4,47.23 L -28.18,0 -40.04,8.1 v 47.23 c -0.226,7.128 -16.661,4.747 -21.72,5.09 v 16.22 h 15.89 v -0.4 c 15.52,-1.14 20.935,-12.843 21.71,-19.64 0,0 0,-40.11 0,-40.11 z"
               style="fill:#ececec;fill-opacity:1;fill-rule:nonzero;stroke:none"
               id="path951" />
          </g>
          <g
             id="g953"
             transform="translate(719.908,697.6125)"
             style="fill:#ececec">
            <path
               d="M 0,0 -11.87,-8.1 0,-16.21 v -47.23 c 0.207,-7.131 16.66,-4.745 21.71,-5.09 v -15.9 H 5.82 v 0.08 c -15.509,1.141 -20.926,12.852 -21.71,19.64 0,0 0,40.11 0,40.11 L -40.04,-8.1 -15.89,8.39 V 48.5 c 0.783,6.798 6.202,18.499 21.71,19.64 v 0.4 H 21.71 V 52.32 C 16.626,51.965 0.229,54.374 0.001,47.23 0,47.23 0,0 0,0"
               style="fill:#ececec;fill-opacity:1;fill-rule:nonzero;stroke:none"
               id="path955" />
          </g>
          <g
             id="g957"
             transform="translate(768.7446,703.7646)"
             style="fill:#ececec">
            <path
               d="m 0,0 c 0,2.992 -0.895,5.272 -2.683,6.843 -1.789,1.569 -4.106,2.354 -6.953,2.354 h -18.832 c 1.823,0 3.284,-0.621 4.38,-1.861 1.094,-1.242 1.642,-2.556 1.642,-3.942 v -8.869 c 0,-0.876 0.309,-1.642 0.93,-2.299 0.62,-0.658 1.405,-0.986 2.354,-0.986 h 9.526 c 2.847,0 5.164,0.712 6.953,2.135 C -0.895,-5.201 0,-2.994 0,0 M 20.584,-51.353 H 5.146 c -2.044,0 -3.504,0.949 -4.38,2.847 l -11.168,21.899 c -0.657,1.167 -1.642,1.752 -2.956,1.752 h -14.344 c 1.824,0 3.266,-0.64 4.325,-1.916 1.058,-1.278 1.588,-2.574 1.588,-3.887 v -18.067 c 0,-0.803 -0.257,-1.422 -0.767,-1.861 -0.511,-0.512 -1.168,-0.767 -1.97,-0.767 h -15.001 c -0.73,0 -1.369,0.275 -1.916,0.822 -0.548,0.548 -0.821,1.149 -0.821,1.806 v 64.163 c 0,2.7 0.948,4.945 2.847,6.734 1.897,1.788 4.123,2.682 6.679,2.682 h 23.212 c 4.087,0 7.974,-0.437 11.661,-1.313 3.685,-0.876 6.934,-2.3 9.745,-4.27 2.809,-1.971 5.054,-4.544 6.734,-7.72 1.678,-3.175 2.518,-7.062 2.518,-11.66 0,-4.38 -0.986,-8.323 -2.956,-11.826 -1.971,-3.503 -4.892,-6.35 -8.76,-8.541 -0.585,-0.366 -0.895,-0.803 -0.931,-1.313 -0.037,-0.512 0.055,-0.914 0.274,-1.205 l 13.796,-24.964 c 0.219,-0.438 0.329,-0.84 0.329,-1.204 0,-0.585 -0.238,-1.096 -0.712,-1.533 -0.476,-0.439 -1.004,-0.658 -1.588,-0.658"
               style="fill:#ececec;fill-opacity:1;fill-rule:nonzero;stroke:none"
               id="path959" />
          </g>
          <g
             id="g961"
             transform="translate(833.1255,692.377)"
             style="fill:#ececec">
            <path
               d="m 0,0 c 1.314,0 2.554,-0.257 3.723,-0.767 1.167,-0.51 2.207,-1.094 3.12,-1.752 0.912,-0.656 1.698,-1.313 2.354,-1.97 0.657,-0.657 1.131,-1.132 1.424,-1.423 l 22.884,-30.33 c 0.29,-0.219 0.438,-0.656 0.438,-1.314 0,-0.585 -0.219,-1.094 -0.657,-1.533 -0.512,-0.437 -1.095,-0.657 -1.752,-0.657 H 14.453 c -1.899,0 -3.358,0.693 -4.38,2.081 -3.431,4.451 -6.533,8.467 -9.306,12.044 -1.681,2.116 -3.031,3.832 -4.052,5.146 -1.023,1.314 -1.971,2.536 -2.847,3.668 -0.876,1.131 -1.625,2.098 -2.244,2.902 -0.621,0.802 -1.004,1.313 -1.15,1.533 -0.292,0.145 -0.475,0.219 -0.547,0.219 -0.366,0 -0.548,-0.219 -0.548,-0.658 v -24.307 c 0,-0.804 -0.256,-1.442 -0.766,-1.916 -0.512,-0.476 -1.169,-0.712 -1.971,-0.712 h -14.563 c -0.73,0 -1.369,0.236 -1.916,0.712 -0.547,0.474 -0.821,1.112 -0.821,1.916 v 64.163 c 0,2.409 0.876,4.58 2.628,6.515 1.752,1.933 4.013,2.901 6.788,2.901 h 7.884 c 0.802,0 1.459,-0.256 1.971,-0.766 0.51,-0.511 0.766,-1.169 0.766,-1.971 V 11.606 c 0,-0.366 0.182,-0.547 0.548,-0.547 0.219,0 0.4,0.072 0.547,0.219 L 8.65,34.381 c 0.876,1.386 2.299,2.08 4.27,2.08 h 16.643 c 0.583,0 1.131,-0.219 1.643,-0.656 0.438,-0.439 0.656,-0.951 0.656,-1.534 0,-0.73 -0.147,-1.168 -0.438,-1.314 C 27.702,28.066 24.343,23.687 21.351,19.818 19.525,17.481 18.102,15.62 17.081,14.234 16.058,12.847 15.091,11.568 14.179,10.402 13.266,9.233 12.499,8.267 11.88,7.5 11.259,6.734 10.912,6.313 10.84,6.241 10.692,6.022 10.328,5.565 9.745,4.873 9.16,4.178 8.393,3.467 7.445,2.737 6.496,2.007 5.382,1.369 4.106,0.821 2.828,0.274 1.459,0 0,0"
               style="fill:#ececec;fill-opacity:1;fill-rule:nonzero;stroke:none"
               id="path963" />
          </g>
        </g>
      </g>
      <text
         transform="matrix(1,0,0,-1,227.5029,686.4648)"
         style="font-variant:normal;font-weight:bold;font-stretch:normal;font-size:109.493px;font-family:Bold;-inkscape-font-specification:Cunia;writing-mode:lr-tb;fill:#000000;fill-opacity:1;fill-rule:nonzero;stroke:none"
         id="text967"><tspan
           x="0 76.097427"
           y="0"
           sodipodi:role="line"
           id="tspan965">RK</tspan></text>
      <path
         d="m 1742.4185,760.55383 h -224.308 v 160.352 h 224.308 z"
         style="fill:#000000;fill-opacity:1;fill-rule:nonzero;stroke:none"
         id="path969" />
      <path
         d="m 1966.7265,600.20183 h -224.308 v 160.352 h 224.308 z"
         style="fill:#000000;fill-opacity:1;fill-rule:nonzero;stroke:none"
         id="path971" />
      <path
         d="m 1967.7475,760.64283 h -224.308 v 160.352 h 224.308 z"
         style="fill:#cccaca;fill-opacity:1;fill-rule:nonzero;stroke:none"
         id="path973" />
      <path
         d="m 1742.9245,600.20183 h -224.308 v 160.352 h 224.308 z"
         style="fill:#cccaca;fill-opacity:1;fill-rule:nonzero;stroke:none"
         id="path975" />
      <g
         id="g977"
         transform="translate(375.30854,-123.34717)">
        <g
           id="g979"
           clip-path="url(#clipPath983)">
          <g
             id="g985"
             transform="translate(1325.9465,803.6743)">
            <path
               d="m 0,0 -14.891,-10.17 c -1.287,-19.933 7.416,-39.237 -23.176,-36.797 v 9.72 c 3.139,0.218 13.235,-1.264 13.387,3.138 0.001,-10e-4 0.001,29.11 0.001,29.11 l 7.31,4.999 -7.31,4.993 v 29.11 c -0.139,4.394 -10.27,2.926 -13.388,3.138 v 9.997 h 9.794 v -0.246 c 9.566,-0.703 12.904,-7.916 13.382,-12.106 0,0 0,-24.722 0,-24.722 z"
               style="fill:#000000;fill-opacity:1;fill-rule:nonzero;stroke:none"
               id="path987" />
          </g>
          <g
             id="g989"
             transform="translate(1209.657,808.7068)">
            <path
               d="M 0,0 -7.316,-4.993 0,-9.991 v -29.111 c 0.127,-4.395 10.268,-2.925 13.381,-3.138 v -9.8 H 3.587 v 0.05 c -9.559,0.703 -12.898,7.921 -13.381,12.105 v 24.722 l -14.885,10.17 14.885,10.164 v 24.723 c 0.482,4.189 3.823,11.402 13.381,12.105 v 0.247 h 9.794 V 32.248 C 10.247,32.029 0.141,33.514 0,29.111 0,29.111 0,0 0,0"
               style="fill:#000000;fill-opacity:1;fill-rule:nonzero;stroke:none"
               id="path991" />
          </g>
          <g
             id="g993"
             transform="translate(1239.7581,812.4988)">
            <path
               d="m 0,0 c 0,1.844 -0.552,3.25 -1.653,4.218 -1.103,0.967 -2.531,1.451 -4.286,1.451 h -11.608 c 1.124,0 2.025,-0.383 2.7,-1.147 0.675,-0.766 1.012,-1.576 1.012,-2.43 v -5.466 c 0,-0.54 0.191,-1.013 0.574,-1.418 0.381,-0.405 0.865,-0.607 1.45,-0.607 h 5.872 c 1.755,0 3.183,0.439 4.286,1.316 C -0.552,-3.206 0,-1.845 0,0 M 12.688,-31.652 H 3.172 c -1.26,0 -2.16,0.585 -2.7,1.755 L -6.411,-16.4 c -0.405,0.719 -1.013,1.08 -1.823,1.08 h -8.84 c 1.124,0 2.013,-0.394 2.665,-1.181 0.652,-0.787 0.979,-1.586 0.979,-2.396 v -11.135 c 0,-0.495 -0.158,-0.877 -0.472,-1.147 -0.316,-0.316 -0.721,-0.473 -1.215,-0.473 h -9.246 c -0.45,0 -0.843,0.169 -1.181,0.506 -0.337,0.338 -0.506,0.709 -0.506,1.114 V 9.516 c 0,1.663 0.584,3.047 1.754,4.15 1.17,1.102 2.542,1.653 4.117,1.653 h 14.308 c 2.519,0 4.915,-0.269 7.187,-0.809 2.271,-0.54 4.274,-1.418 6.006,-2.632 1.732,-1.215 3.115,-2.801 4.151,-4.758 1.034,-1.957 1.552,-4.353 1.552,-7.187 0,-2.7 -0.607,-5.13 -1.822,-7.289 -1.215,-2.16 -3.015,-3.914 -5.399,-5.264 -0.361,-0.226 -0.552,-0.496 -0.574,-0.81 -0.023,-0.315 0.034,-0.563 0.169,-0.743 l 8.503,-15.387 c 0.135,-0.27 0.203,-0.517 0.203,-0.742 0,-0.36 -0.147,-0.675 -0.439,-0.945 -0.293,-0.27 -0.619,-0.405 -0.978,-0.405"
               style="fill:#000000;fill-opacity:1;fill-rule:nonzero;stroke:none"
               id="path995" />
          </g>
          <g
             id="g997"
             transform="translate(1279.4402,805.4798)">
            <path
               d="m 0,0 c 0.81,0 1.574,-0.158 2.295,-0.472 0.719,-0.315 1.36,-0.675 1.923,-1.08 0.562,-0.405 1.046,-0.81 1.451,-1.215 0.405,-0.405 0.697,-0.698 0.877,-0.877 l 14.105,-18.694 c 0.179,-0.135 0.27,-0.405 0.27,-0.81 0,-0.36 -0.135,-0.675 -0.405,-0.945 -0.315,-0.27 -0.675,-0.405 -1.08,-0.405 H 8.908 c -1.17,0 -2.07,0.427 -2.699,1.283 -2.115,2.743 -4.027,5.218 -5.736,7.423 -1.036,1.304 -1.868,2.362 -2.498,3.172 -0.63,0.81 -1.215,1.563 -1.754,2.261 -0.54,0.697 -1.002,1.293 -1.384,1.788 -0.383,0.495 -0.619,0.81 -0.708,0.945 -0.181,0.09 -0.294,0.135 -0.338,0.135 -0.226,0 -0.338,-0.135 -0.338,-0.405 v -14.982 c 0,-0.496 -0.157,-0.889 -0.472,-1.181 -0.315,-0.293 -0.72,-0.439 -1.215,-0.439 h -8.975 c -0.451,0 -0.844,0.146 -1.181,0.439 -0.338,0.292 -0.507,0.685 -0.507,1.181 V 16.67 c 0,1.484 0.54,2.823 1.62,4.015 1.08,1.192 2.474,1.788 4.184,1.788 h 4.859 c 0.495,0 0.9,-0.157 1.215,-0.472 0.315,-0.315 0.472,-0.72 0.472,-1.215 V 7.154 c 0,-0.226 0.112,-0.338 0.338,-0.338 0.135,0 0.247,0.045 0.338,0.136 L 5.331,21.191 c 0.54,0.854 1.418,1.282 2.632,1.282 h 10.259 c 0.359,0 0.697,-0.135 1.012,-0.404 0.27,-0.27 0.405,-0.586 0.405,-0.945 0,-0.45 -0.091,-0.721 -0.27,-0.81 C 17.074,17.299 15.004,14.6 13.16,12.215 12.035,10.775 11.157,9.628 10.528,8.774 9.897,7.918 9.302,7.13 8.74,6.412 8.176,5.691 7.704,5.095 7.322,4.623 6.939,4.151 6.725,3.891 6.681,3.847 6.59,3.712 6.366,3.43 6.006,3.004 5.646,2.575 5.173,2.137 4.589,1.687 4.004,1.237 3.318,0.844 2.531,0.506 1.743,0.169 0.9,0 0,0"
               style="fill:#000000;fill-opacity:1;fill-rule:nonzero;stroke:none"
               id="path999" />
          </g>
          <g
             id="g1001"
             transform="translate(1551.7903,803.6743)">
            <path
               d="m 0,0 -14.891,-10.17 c -1.287,-19.933 7.416,-39.237 -23.176,-36.797 v 9.72 c 3.139,0.218 13.235,-1.264 13.388,3.138 0,-10e-4 0,29.11 0,29.11 l 7.31,4.999 -7.31,4.993 v 29.11 c -0.139,4.394 -10.27,2.926 -13.388,3.138 v 9.997 h 9.794 v -0.246 c 9.566,-0.703 12.904,-7.916 13.382,-12.106 0,0 0,-24.722 0,-24.722 z"
               style="fill:#ffffff;fill-opacity:1;fill-rule:nonzero;stroke:none"
               id="path1003" />
          </g>
          <g
             id="g1005"
             transform="translate(1435.5009,808.7068)">
            <path
               d="M 0,0 -7.316,-4.993 0,-9.991 v -29.111 c 0.127,-4.395 10.268,-2.925 13.381,-3.138 v -9.8 H 3.587 v 0.05 c -9.559,0.703 -12.898,7.921 -13.381,12.105 v 24.722 l -14.885,10.17 14.885,10.164 v 24.723 c 0.482,4.189 3.823,11.402 13.381,12.105 v 0.247 h 9.794 V 32.248 C 10.247,32.029 0.141,33.514 0,29.111 0,29.111 0,0 0,0"
               style="fill:#ffffff;fill-opacity:1;fill-rule:nonzero;stroke:none"
               id="path1007" />
          </g>
          <g
             id="g1009"
             transform="translate(1465.6019,812.4988)">
            <path
               d="m 0,0 c 0,1.844 -0.552,3.25 -1.653,4.218 -1.103,0.967 -2.531,1.451 -4.286,1.451 h -11.608 c 1.124,0 2.025,-0.383 2.7,-1.147 0.675,-0.766 1.012,-1.576 1.012,-2.43 v -5.466 c 0,-0.54 0.191,-1.013 0.574,-1.418 0.381,-0.405 0.865,-0.607 1.45,-0.607 h 5.872 c 1.755,0 3.183,0.439 4.286,1.316 C -0.552,-3.206 0,-1.845 0,0 M 12.688,-31.652 H 3.172 c -1.26,0 -2.16,0.585 -2.7,1.755 L -6.411,-16.4 c -0.405,0.719 -1.013,1.08 -1.823,1.08 h -8.84 c 1.124,0 2.012,-0.394 2.665,-1.181 0.652,-0.787 0.979,-1.586 0.979,-2.396 v -11.135 c 0,-0.495 -0.158,-0.877 -0.472,-1.147 -0.316,-0.316 -0.721,-0.473 -1.215,-0.473 h -9.246 c -0.45,0 -0.844,0.169 -1.181,0.506 -0.338,0.338 -0.506,0.709 -0.506,1.114 V 9.516 c 0,1.663 0.584,3.047 1.754,4.15 1.17,1.102 2.542,1.653 4.117,1.653 h 14.308 c 2.519,0 4.915,-0.269 7.187,-0.809 2.271,-0.54 4.274,-1.418 6.006,-2.632 1.732,-1.215 3.115,-2.801 4.151,-4.758 1.034,-1.957 1.552,-4.353 1.552,-7.187 0,-2.7 -0.607,-5.13 -1.822,-7.289 -1.215,-2.16 -3.015,-3.914 -5.399,-5.264 -0.361,-0.226 -0.552,-0.496 -0.574,-0.81 -0.023,-0.315 0.034,-0.563 0.169,-0.743 l 8.503,-15.387 c 0.135,-0.27 0.203,-0.517 0.203,-0.742 0,-0.36 -0.147,-0.675 -0.439,-0.945 -0.293,-0.27 -0.619,-0.405 -0.978,-0.405"
               style="fill:#ffffff;fill-opacity:1;fill-rule:nonzero;stroke:none"
               id="path1011" />
          </g>
          <g
             id="g1013"
             transform="translate(1505.2841,805.4798)">
            <path
               d="m 0,0 c 0.81,0 1.574,-0.158 2.294,-0.472 0.72,-0.315 1.361,-0.675 1.924,-1.08 0.562,-0.405 1.046,-0.81 1.451,-1.215 0.405,-0.405 0.697,-0.698 0.877,-0.877 l 14.105,-18.694 c 0.179,-0.135 0.27,-0.405 0.27,-0.81 0,-0.36 -0.135,-0.675 -0.405,-0.945 -0.315,-0.27 -0.675,-0.405 -1.08,-0.405 H 8.908 c -1.17,0 -2.07,0.427 -2.699,1.283 -2.115,2.743 -4.027,5.218 -5.737,7.423 -1.035,1.304 -1.867,2.362 -2.497,3.172 -0.63,0.81 -1.215,1.563 -1.754,2.261 -0.54,0.697 -1.002,1.293 -1.384,1.788 -0.383,0.495 -0.619,0.81 -0.708,0.945 -0.181,0.09 -0.294,0.135 -0.338,0.135 -0.226,0 -0.338,-0.135 -0.338,-0.405 v -14.982 c 0,-0.496 -0.157,-0.889 -0.472,-1.181 -0.315,-0.293 -0.72,-0.439 -1.215,-0.439 h -8.975 c -0.451,0 -0.844,0.146 -1.182,0.439 -0.337,0.292 -0.506,0.685 -0.506,1.181 V 16.67 c 0,1.484 0.54,2.823 1.62,4.015 1.08,1.192 2.474,1.788 4.184,1.788 h 4.859 c 0.495,0 0.9,-0.157 1.215,-0.472 0.315,-0.315 0.472,-0.72 0.472,-1.215 V 7.154 c 0,-0.226 0.112,-0.338 0.338,-0.338 0.135,0 0.247,0.045 0.338,0.136 L 5.331,21.191 c 0.54,0.854 1.418,1.282 2.632,1.282 h 10.259 c 0.359,0 0.697,-0.135 1.012,-0.404 0.27,-0.27 0.405,-0.586 0.405,-0.945 0,-0.45 -0.091,-0.721 -0.27,-0.81 C 17.074,17.299 15.004,14.6 13.16,12.215 12.035,10.775 11.157,9.628 10.528,8.774 9.897,7.918 9.302,7.13 8.74,6.412 8.176,5.691 7.704,5.095 7.322,4.623 6.939,4.151 6.725,3.891 6.681,3.847 6.59,3.712 6.366,3.43 6.006,3.004 5.646,2.575 5.173,2.137 4.589,1.687 4.004,1.237 3.317,0.844 2.531,0.506 1.743,0.169 0.9,0 0,0"
               style="fill:#ffffff;fill-opacity:1;fill-rule:nonzero;stroke:none"
               id="path1015" />
          </g>
          <g
             id="g1017"
             transform="translate(1559.8918,964.075)">
            <path
               d="m 0,0 -14.145,-9.66 v -23.484 l -0.035,-0.298 c -0.475,-3.671 -3.677,-10.439 -12.336,-11.171 h -9.643 v 9.233 h 8.062 c 3.355,0 4.356,1.762 4.655,2.98 V -4.748 L -16.499,0 -23.442,4.742 v 27.652 c -0.299,1.218 -1.3,2.98 -4.655,2.98 h -8.062 v 9.497 h 9.303 v -0.234 c 8.917,-0.586 12.196,-7.477 12.676,-11.201 l 0.035,-0.298 V 9.654 Z"
               style="fill:#000000;fill-opacity:1;fill-rule:nonzero;stroke:none"
               id="path1019" />
          </g>
          <g
             id="g1021"
             transform="translate(1424.1202,968.8174)">
            <path
               d="M 0,0 -6.95,-4.742 0,-9.491 v -27.652 c 0.293,-1.217 1.294,-2.98 4.649,-2.98 h 8.062 v -9.309 H 3.407 v 0.047 c -8.91,0.586 -12.189,7.483 -12.675,11.2 l -0.035,0.299 v 23.483 l -14.139,9.661 14.139,9.654 v 23.484 l 0.035,0.298 c 0.486,3.724 3.765,10.615 12.675,11.2 v 0.234 h 9.304 V 30.632 H 4.649 C 1.294,30.632 0.293,28.87 0,27.652 Z"
               style="fill:#000000;fill-opacity:1;fill-rule:nonzero;stroke:none"
               id="path1023" />
          </g>
        </g>
      </g>
      <text
         transform="scale(1.031945,-0.96904387)"
         style="font-variant:normal;font-weight:normal;font-stretch:normal;font-size:81.299px;font-family:Squaresharps;-inkscape-font-specification:Squaresharps;writing-mode:lr-tb;fill:#000000;fill-opacity:1;fill-rule:nonzero;stroke:none;stroke-width:0.969044"
         id="text1029"
         x="1750.7173"
         y="-844.89941"><tspan
           x="1750.7173"
           y="-844.89941"
           id="tspan1025"
           style="stroke-width:0.969044">r</tspan><tspan
           x="1799.1715"
           y="-844.98071"
           id="tspan1027"
           style="stroke-width:0.969044">k</tspan></text>
      <g
         id="g1031"
         transform="translate(375.30854,-123.34717)">
        <g
           id="g1033"
           clip-path="url(#clipPath1037)">
          <g
             id="g1039"
             transform="translate(1527.5586,942.0005)">
            <path
               d="m 0,0 h -7.199 l 3.471,-5.867 H 5.867 V 22.256 50.379 H -3.728 L -7.199,44.512 H 0 V 22.256 Z"
               style="fill:#1c1c1c;fill-opacity:1;fill-rule:nonzero;stroke:none"
               id="path1041" />
          </g>
          <g
             id="g1043"
             transform="translate(1432.274,986.5125)">
            <path
               d="M 0,0 H 7.199 L 3.728,5.867 h -9.595 v -28.123 -28.123 h 9.595 l 3.471,5.867 H 0 v 22.256 z"
               style="fill:#1c1c1c;fill-opacity:1;fill-rule:nonzero;stroke:none"
               id="path1045" />
          </g>
          <g
             id="g1047"
             transform="translate(1333.4698,964.075)">
            <path
               d="m 0,0 -14.145,-9.66 v -23.484 l -0.035,-0.298 c -0.474,-3.671 -3.677,-10.439 -12.336,-11.171 h -9.643 v 9.233 h 8.062 c 3.355,0 4.356,1.762 4.655,2.98 V -4.748 L -16.499,0 -23.442,4.742 v 27.652 c -0.299,1.218 -1.3,2.98 -4.655,2.98 h -8.062 v 9.497 h 9.303 v -0.234 c 8.917,-0.586 12.196,-7.477 12.676,-11.201 l 0.035,-0.298 V 9.654 Z"
               style="fill:#ffffff;fill-opacity:1;fill-rule:nonzero;stroke:none"
               id="path1049" />
          </g>
          <g
             id="g1051"
             transform="translate(1197.6982,968.8174)">
            <path
               d="M 0,0 -6.95,-4.742 0,-9.491 v -27.652 c 0.293,-1.217 1.294,-2.98 4.649,-2.98 h 8.062 v -9.309 H 3.407 v 0.047 c -8.91,0.586 -12.189,7.483 -12.675,11.2 l -0.035,0.299 v 23.483 l -14.139,9.661 14.139,9.654 v 23.484 l 0.035,0.298 c 0.486,3.724 3.765,10.615 12.675,11.2 v 0.234 h 9.304 V 30.632 H 4.649 C 1.294,30.632 0.293,28.87 0,27.652 Z"
               style="fill:#ffffff;fill-opacity:1;fill-rule:nonzero;stroke:none"
               id="path1053" />
          </g>
        </g>
      </g>
      <text
         transform="scale(1.031945,-0.96904387)"
         style="font-variant:normal;font-weight:normal;font-stretch:normal;font-size:81.299px;font-family:Squaresharps;-inkscape-font-specification:Squaresharps;writing-mode:lr-tb;fill:#ffffff;fill-opacity:1;fill-rule:nonzero;stroke:none;stroke-width:0.969044"
         id="text1059"
         x="1531.3041"
         y="-844.89941"><tspan
           x="1531.3041"
           y="-844.89941"
           id="tspan1055"
           style="stroke-width:0.969044">r</tspan><tspan
           x="1579.7583"
           y="-844.98071"
           id="tspan1057"
           style="stroke-width:0.969044">k</tspan></text>
      <g
         id="g1061"
         transform="translate(375.30854,-123.34717)">
        <g
           id="g1063"
           clip-path="url(#clipPath1067)">
          <g
             id="g1069"
             transform="translate(1301.1366,942.0005)">
            <path
               d="m 0,0 h -7.199 l 3.471,-5.867 H 5.867 V 22.256 50.379 H -3.728 L -7.199,44.512 H 0 V 22.256 Z"
               style="fill:#ffffff;fill-opacity:1;fill-rule:nonzero;stroke:none"
               id="path1071" />
          </g>
          <g
             id="g1073"
             transform="translate(1205.8521,986.5125)">
            <path
               d="M 0,0 H 7.199 L 3.728,5.867 h -9.595 v -28.123 -28.123 h 9.595 l 3.471,5.867 H 0 v 22.256 z"
               style="fill:#ffffff;fill-opacity:1;fill-rule:nonzero;stroke:none"
               id="path1075" />
          </g>
        </g>
      </g>
    </g>
  </g>
</svg>
