<?xml version="1.0" encoding="UTF-8" standalone="no"?>
<svg
   xmlns:dc="http://purl.org/dc/elements/1.1/"
   xmlns:cc="http://creativecommons.org/ns#"
   xmlns:rdf="http://www.w3.org/1999/02/22-rdf-syntax-ns#"
   xmlns:svg="http://www.w3.org/2000/svg"
   xmlns="http://www.w3.org/2000/svg"
   xmlns:sodipodi="http://sodipodi.sourceforge.net/DTD/sodipodi-0.dtd"
   xmlns:inkscape="http://www.inkscape.org/namespaces/inkscape"
   width="320"
   height="220"
   viewBox="0 0 320 220"
   fill="none"
   version="1.1"
   id="svg24"
   sodipodi:docname="favicon2.svg"
   inkscape:version="1.0.2 (e86c870879, 2021-01-15)">
  <metadata
     id="metadata28">
    <rdf:RDF>
      <cc:Work
         rdf:about="">
        <dc:format>image/svg+xml</dc:format>
        <dc:type
           rdf:resource="http://purl.org/dc/dcmitype/StillImage" />
      </cc:Work>
    </rdf:RDF>
  </metadata>
  <sodipodi:namedview
     pagecolor="#ffffff"
     bordercolor="#666666"
     borderopacity="1"
     objecttolerance="10"
     gridtolerance="10"
     guidetolerance="10"
     inkscape:pageopacity="0"
     inkscape:pageshadow="2"
     inkscape:window-width="1920"
     inkscape:window-height="1056"
     id="namedview26"
     showgrid="false"
     inkscape:zoom="3.575"
     inkscape:cx="160.97902"
     inkscape:cy="110"
     inkscape:window-x="0"
     inkscape:window-y="0"
     inkscape:window-maximized="1"
     inkscape:current-layer="svg24" />
  <rect
     width="320"
     height="220"
     rx="20"
     fill="#2F2E41"
     id="rect2" />
  <g
     clip-path="url(#clip0_624_112)"
     id="g17"
     style="fill:#ffffff"
     transform="matrix(1.0375738,0,0,1.0375738,-6.0295986,-4.1392375)">
    <mask
       id="mask0_624_112"
       maskUnits="userSpaceOnUse"
       x="-899"
       y="-1638"
       width="2668"
       height="2668">
      <path
         d="M -898.491,-1637.13 H 1768.18 V 1029.54 H -898.491 Z"
         fill="#ffffff"
         id="path4" />
    </mask>
    <g
       mask="url(#mask0_624_112)"
       id="g15"
       style="fill:#ffffff">
      <path
         d="m 312.947,110.273 -32.214,22 c -2.784,43.12 16.043,84.878 -50.133,79.6 v -21.026 c 6.791,-0.471 28.631,2.734 28.959,-6.787 L 259.56,121.087 275.373,110.273 259.56,99.4732 V 36.4999 c -0.301,-9.504 -22.215,-6.3294 -28.96,-6.7867 V 8.08652 h 21.187 V 8.61985 C 272.48,10.1398 279.7,25.7438 280.733,34.8065 v 53.48 z"
         fill="white"
         id="path7"
         style="fill:#ffffff" />
      <path
         d="M 61.3867,99.3868 45.56,110.187 61.3867,121 v 62.973 c 0.276,9.508 22.2133,6.327 28.9466,6.787 v 21.2 H 69.1467 v -0.107 C 48.468,210.332 41.2453,194.717 40.2,185.667 v -53.48 L 8,110.187 40.2,88.2001 v -53.48 C 41.244,25.6561 48.4693,10.0548 69.1467,8.53346 V 8.00014 H 90.3333 V 29.6268 C 83.5547,30.1001 61.692,26.8881 61.388,36.4135 Z"
         fill="white"
         id="path9"
         style="fill:#ffffff" />
      <path
         d="m 126.502,91.1839 c 0,-3.9893 -1.193,-7.0293 -3.577,-9.124 -2.386,-2.092 -5.475,-3.1386 -9.271,-3.1386 H 88.5448 c 2.4306,0 4.3786,0.828 5.84,2.4813 1.4586,1.656 2.1893,3.408 2.1893,5.256 v 11.8253 c 0,1.168 0.412,2.1891 1.24,3.0651 0.8267,0.878 1.8733,1.315 3.1389,1.315 h 12.701 c 3.796,0 6.885,-0.949 9.271,-2.847 2.384,-1.8984 3.577,-4.8411 3.577,-8.8331 z m 27.445,68.4711 h -20.584 c -2.725,0 -4.672,-1.266 -5.84,-3.796 l -14.89,-29.199 c -0.876,-1.556 -2.19,-2.336 -3.942,-2.336 H 89.5661 c 2.432,0 4.3547,0.853 5.7667,2.555 1.4106,1.704 2.1173,3.432 2.1173,5.182 v 24.09 c 0,1.07 -0.3427,1.896 -1.0227,2.481 -0.6813,0.683 -1.5573,1.023 -2.6266,1.023 H 73.7994 c -0.9733,0 -1.8253,-0.367 -2.5546,-1.096 -0.7307,-0.731 -1.0947,-1.532 -1.0947,-2.408 V 70.5999 c 0,-3.6 1.264,-6.5933 3.796,-8.9786 2.5293,-2.384 5.4973,-3.576 8.9053,-3.576 h 30.9496 c 5.449,0 10.632,0.5826 15.548,1.7506 4.913,1.168 9.245,3.0667 12.993,5.6934 3.745,2.628 6.739,6.0586 8.979,10.2933 2.237,4.2333 3.357,9.416 3.357,15.5467 0,5.84 -1.315,11.0977 -3.941,15.7677 -2.628,4.671 -6.523,8.467 -11.68,11.388 -0.78,0.488 -1.194,1.071 -1.242,1.751 -0.049,0.683 0.074,1.219 0.366,1.607 l 18.394,33.285 c 0.292,0.584 0.439,1.12 0.439,1.605 0,0.78 -0.317,1.462 -0.949,2.044 -0.635,0.586 -1.339,0.878 -2.118,0.878 z"
         fill="white"
         id="path11"
         style="fill:#ffffff" />
      <path
         d="m 212.343,106.367 c 1.752,0 3.405,0.343 4.964,1.023 1.556,0.68 2.943,1.458 4.16,2.336 1.216,0.874 2.264,1.75 3.139,2.626 0.876,0.876 1.508,1.51 1.898,1.898 l 30.512,40.44 c 0.387,0.292 0.584,0.874 0.584,1.752 0,0.78 -0.292,1.458 -0.876,2.044 -0.682,0.582 -1.46,0.876 -2.336,0.876 h -22.774 c -2.532,0 -4.478,-0.924 -5.84,-2.775 -4.575,-5.935 -8.711,-11.289 -12.408,-16.059 -2.242,-2.821 -4.042,-5.109 -5.403,-6.861 -1.364,-1.752 -2.628,-3.381 -3.796,-4.891 -1.168,-1.508 -2.167,-2.797 -2.992,-3.869 -0.828,-1.069 -1.339,-1.751 -1.533,-2.044 -0.39,-0.193 -0.634,-0.292 -0.73,-0.292 -0.488,0 -0.73,0.292 -0.73,0.877 v 32.41 c 0,1.072 -0.342,1.922 -1.022,2.554 -0.682,0.635 -1.558,0.95 -2.628,0.95 h -19.417 c -0.973,0 -1.825,-0.315 -2.555,-0.95 -0.729,-0.632 -1.094,-1.482 -1.094,-2.554 V 70.3071 c 0,-3.212 1.168,-6.1066 3.504,-8.6866 2.336,-2.5774 5.35,-3.868 9.05,-3.868 h 10.512 c 1.07,0 1.946,0.3413 2.628,1.0213 0.68,0.6814 1.022,1.5587 1.022,2.628 v 29.4907 c 0,0.488 0.242,0.7293 0.73,0.7293 0.292,0 0.534,-0.096 0.73,-0.292 l 24.234,-30.804 c 1.168,-1.848 3.066,-2.7733 5.694,-2.7733 h 22.19 c 0.778,0 1.508,0.292 2.191,0.8747 0.584,0.5853 0.875,1.2679 0.875,2.0453 0,0.9733 -0.196,1.5573 -0.584,1.752 -4.963,6.5213 -9.442,12.36 -13.431,17.5186 -2.435,3.116 -4.332,5.5974 -5.693,7.4454 -1.364,1.8493 -2.654,3.5546 -3.87,5.1093 -1.217,1.5587 -2.24,2.8467 -3.065,3.8694 -0.828,1.0213 -1.291,1.5826 -1.387,1.6786 -0.197,0.292 -0.682,0.9013 -1.46,1.824 -0.78,0.9262 -1.802,1.8742 -3.066,2.8482 -1.266,0.973 -2.751,1.824 -4.452,2.554 -1.704,0.73 -3.53,1.095 -5.475,1.095 z"
         fill="white"
         id="path13"
         style="fill:#ffffff" />
    </g>
  </g>
  <defs
     id="defs22">
    <clipPath
       id="clip0_624_112">
      <rect
         width="304.947"
         height="204.326"
         fill="white"
         transform="translate(8 8)"
         id="rect19" />
    </clipPath>
  </defs>
</svg>
