<svg width="308" height="300" viewBox="0 0 308 300" fill="none" xmlns="http://www.w3.org/2000/svg">
<g clip-path="url(#clip0_1006_26)">
<path d="M0 0V300H307.692V0H0ZM12.821 12.821H294.872V287.179H12.821V12.821Z" fill="white"/>
<path d="M223.462 126.026C221.105 125.066 218.568 124.629 216.026 124.744C199.872 124.744 189.103 137.18 189.103 157.821C189.103 181.411 200.129 190.898 214.488 190.898C217.498 190.983 220.498 190.505 223.334 189.488V126.026H223.462ZM166.026 158.847C166.026 128.975 185.257 105.642 216.795 105.642C219.02 105.597 221.246 105.682 223.462 105.898V72.5642C223.462 72.2244 223.598 71.8988 223.838 71.6585C224.078 71.4183 224.404 71.283 224.744 71.2822H245.385C246.411 71.2822 246.667 71.6672 246.667 72.3082V189.487C246.591 193.685 246.805 197.883 247.308 202.051C247.308 202.951 247.308 203.077 246.539 203.461C236.287 208.35 225.075 210.89 213.718 210.897C185.898 210.898 166.026 193.718 166.026 158.846V158.847ZM122.308 138.078L158.208 207.693C158.849 208.719 158.464 209.744 157.439 209.744H135.129C134.557 209.817 133.977 209.691 133.487 209.387C132.997 209.084 132.626 208.621 132.437 208.077C124.231 191.154 115.855 173.59 107.309 155.385H107.051C99.3585 172.565 90.8965 191.285 82.6915 208.206C82.4864 208.641 82.1586 209.006 81.7485 209.256C81.3383 209.507 80.8639 209.632 80.3835 209.616H59.1025C57.8205 209.616 57.6925 208.59 58.3335 207.821L93.4615 140.254L59.4875 73.0772C59.3268 72.9119 59.2202 72.7017 59.182 72.4744C59.1437 72.2471 59.1755 72.0135 59.2732 71.8048C59.3709 71.596 59.5299 71.4219 59.7289 71.3057C59.928 71.1895 60.1577 71.1366 60.3875 71.1542H82.4355C83.7175 71.1542 84.3585 71.4102 84.7435 72.5642C92.8205 89.6152 101.026 106.41 108.718 123.59H108.974C116.41 106.667 124.615 89.6162 132.436 72.8212C133.077 71.7952 133.462 71.1542 134.744 71.1542H155.385C156.411 71.1542 156.795 71.9232 156.154 73.0772L122.308 138.078Z" fill="white"/>
</g>
<defs>
<clipPath id="clip0_1006_26">
<rect width="307.692" height="300" fill="white"/>
</clipPath>
</defs>
</svg>
