<svg width="24" height="24" viewBox="0 0 24 24" fill="none" xmlns="http://www.w3.org/2000/svg">
<g clip-path="url(#clip0_1006_36)">
<path d="M9.20324 18.7369L9.19824 18.7319L9.20324 18.7369Z" fill="white"/>
<path d="M23.9255 12.8389C23.9265 12.8459 23.9255 12.8529 23.9265 12.8589C23.9275 12.8649 23.9295 12.8709 23.9295 12.8769L23.9255 12.8389ZM22.8975 10.0679C22.9025 10.0759 22.9065 10.0849 22.9125 10.0939C22.9135 10.0949 22.9145 10.0959 22.9145 10.0969L22.8975 10.0679Z" fill="white"/>
<path d="M15.7519 10.418C15.7429 10.418 15.7359 10.418 15.7269 10.418C14.8919 10.418 14.1279 10.716 13.5389 11.208C12.9469 11.708 12.5549 12.414 12.5089 13.214H12.5099C12.4649 14.036 12.7949 14.798 13.3749 15.365C13.9849 15.947 14.8099 16.304 15.7189 16.304C15.7299 16.304 15.7409 16.304 15.7509 16.304C15.7509 16.304 15.7519 16.304 15.7529 16.304C15.7639 16.304 15.7749 16.304 15.7859 16.304C16.6949 16.304 17.5199 15.947 18.1269 15.366C18.7069 14.799 19.0369 14.036 18.9919 13.213C18.9469 12.414 18.5559 11.708 17.9639 11.208C17.3829 10.718 16.6019 10.418 15.7519 10.418Z" fill="white"/>
<path d="M22.0877 18.9649C22.7887 18.1979 23.3347 17.2749 23.6647 16.2559L23.6797 16.2029C23.8827 15.5789 23.9997 14.8609 23.9997 14.1159C23.9997 13.7749 23.9727 13.4399 23.9267 13.1119C23.7747 12.0839 23.4227 11.1609 22.9117 10.3479C22.4077 9.55092 21.7937 8.87392 21.0797 8.32092L21.0617 8.30792H21.0637L13.5457 2.53592C13.0537 2.15792 12.2267 2.15992 11.6857 2.53792C11.1387 2.91992 11.0767 3.55292 11.5627 3.95292L11.5617 3.95392L14.6877 6.49692L5.14472 6.50692C4.35672 6.50792 3.59972 7.02492 3.44972 7.67892C3.29572 8.34392 3.82972 8.89592 4.64972 8.89892V8.90092L9.47972 8.89092L0.825723 15.5329C0.0127227 16.1549 -0.249277 17.1909 0.262723 17.8459C0.782723 18.5129 1.88772 18.5139 2.70972 17.8499L7.41372 14.0009C7.41372 14.0009 7.34472 14.5209 7.35072 14.8319L7.34872 14.8309C7.35472 15.1449 7.45472 15.7529 7.60472 16.2289C7.94972 17.2999 8.49472 18.2209 9.20272 18.9909C9.96672 19.8279 10.8927 20.5019 11.9327 20.9659L11.9847 20.9869C13.0467 21.4669 14.2877 21.7469 15.5937 21.7469C15.6107 21.7469 15.6277 21.7469 15.6447 21.7469C15.6457 21.7469 15.6467 21.7469 15.6477 21.7469C15.6517 21.7469 15.6567 21.7469 15.6627 21.7469C16.9627 21.7469 18.1967 21.4679 19.3117 20.9699C20.4007 20.4789 21.3247 19.8029 22.0817 18.9719L22.0877 18.9649ZM20.4707 14.9539C20.2327 15.5849 19.8827 16.1239 19.4397 16.5709L19.4377 16.5719C18.4677 17.5599 17.1117 18.1199 15.6427 18.1219C14.1727 18.1259 12.8157 17.5699 11.8457 16.5839C11.3997 16.1359 11.0477 15.5949 10.8197 14.9929L10.8097 14.9619C10.6497 14.5309 10.5577 14.0329 10.5577 13.5139C10.5577 12.7619 10.7527 12.0559 11.0927 11.4409C11.3957 10.9029 11.7797 10.4489 12.2357 10.0789L12.2447 10.0719C13.1867 9.30392 14.3857 8.88892 15.6407 8.88692C16.8957 8.88492 18.0957 9.29692 19.0387 10.0619C19.5187 10.4529 19.9087 10.9159 20.1907 11.4289C20.4697 11.9209 20.6557 12.5009 20.7117 13.1179L20.7127 13.1339C20.7227 13.2429 20.7287 13.3699 20.7287 13.4979C20.7297 14.0099 20.6377 14.4989 20.4707 14.9539Z" fill="white"/>
<path d="M19.3587 20.6982C19.3437 20.7052 19.3277 20.7092 19.3117 20.7162C19.3087 20.7172 19.3057 20.7192 19.3027 20.7212L19.3587 20.6982Z" fill="white"/>
</g>
<defs>
<clipPath id="clip0_1006_36">
<rect width="24" height="24" fill="white"/>
</clipPath>
</defs>
</svg>
