<?xml version="1.0" encoding="UTF-8" standalone="no"?>
<svg
   xmlns:dc="http://purl.org/dc/elements/1.1/"
   xmlns:cc="http://creativecommons.org/ns#"
   xmlns:rdf="http://www.w3.org/1999/02/22-rdf-syntax-ns#"
   xmlns:svg="http://www.w3.org/2000/svg"
   xmlns="http://www.w3.org/2000/svg"
   xmlns:sodipodi="http://sodipodi.sourceforge.net/DTD/sodipodi-0.dtd"
   xmlns:inkscape="http://www.inkscape.org/namespaces/inkscape"
   width="512"
   height="408"
   version="1.1"
   id="svg33"
   sodipodi:docname="bootstrap.svg"
   inkscape:version="1.0.2 (e86c870879, 2021-01-15)">
  <metadata
     id="metadata37">
    <rdf:RDF>
      <cc:Work
         rdf:about="">
        <dc:format>image/svg+xml</dc:format>
        <dc:type
           rdf:resource="http://purl.org/dc/dcmitype/StillImage" />
        <dc:title></dc:title>
      </cc:Work>
    </rdf:RDF>
  </metadata>
  <sodipodi:namedview
     pagecolor="#ffffff"
     bordercolor="#666666"
     borderopacity="1"
     objecttolerance="10"
     gridtolerance="10"
     guidetolerance="10"
     inkscape:pageopacity="0"
     inkscape:pageshadow="2"
     inkscape:window-width="1920"
     inkscape:window-height="1056"
     id="namedview35"
     showgrid="false"
     inkscape:zoom="1.5147336"
     inkscape:cx="285.478"
     inkscape:cy="222.28009"
     inkscape:window-x="0"
     inkscape:window-y="0"
     inkscape:window-maximized="1"
     inkscape:current-layer="svg33"
     inkscape:document-rotation="0"
     fit-margin-top="0"
     fit-margin-left="0"
     fit-margin-right="0"
     fit-margin-bottom="0" />
  <defs
     id="defs27">
    <linearGradient
       id="bs-logo-a"
       x1="76.079002"
       x2="523.47998"
       y1="10.798"
       y2="365.94501"
       gradientUnits="userSpaceOnUse">
      <stop
         stop-color="#9013fe"
         id="stop2" />
      <stop
         offset="1"
         stop-color="#6610f2"
         id="stop4" />
    </linearGradient>
    <linearGradient
       id="bs-logo-b"
       x1="193.508"
       x2="293.51401"
       y1="109.74"
       y2="278.87201"
       gradientUnits="userSpaceOnUse">
      <stop
         stop-color="#fff"
         id="stop7" />
      <stop
         offset="1"
         stop-color="#f1e5fc"
         id="stop9" />
    </linearGradient>
    <filter
       id="bs-logo-c"
       width="197"
       height="249"
       x="161.901"
       y="83.457001"
       color-interpolation-filters="sRGB"
       filterUnits="userSpaceOnUse">
      <feFlood
         flood-opacity="0"
         result="BackgroundImageFix"
         id="feFlood12" />
      <feColorMatrix
         in="SourceAlpha"
         values="0 0 0 0 0 0 0 0 0 0 0 0 0 0 0 0 0 0 127 0"
         id="feColorMatrix14" />
      <feOffset
         dy="4"
         id="feOffset16" />
      <feGaussianBlur
         stdDeviation="8"
         id="feGaussianBlur18" />
      <feColorMatrix
         values="0 0 0 0 0 0 0 0 0 0 0 0 0 0 0 0 0 0 0.15 0"
         id="feColorMatrix20" />
      <feBlend
         in2="BackgroundImageFix"
         result="effect1_dropShadow"
         id="feBlend22"
         mode="normal" />
      <feBlend
         in="SourceGraphic"
         in2="effect1_dropShadow"
         result="shape"
         id="feBlend24"
         mode="normal" />
    </filter>
  </defs>
  <path
     id="path29"
     style="fill:#ffffff"
     d="M 106.3418,0 C 77.127797,0 55.514469,25.580313 56.480469,53.320312 57.408469,79.967313 56.203625,114.48586 47.515625,142.63086 38.801625,170.86286 24.069,188.707 0,191 v 26 c 24.07,2.293 38.801625,20.13714 47.515625,48.36914 8.688,28.145 9.893797,62.6645 8.966797,89.3125 C 55.515422,382.42064 77.127797,408 106.3418,408 h 299.35351 c 29.214,0 50.82733,-25.57936 49.86133,-53.31836 -0.928,-26.648 0.27589,-61.1675 8.96289,-89.3125 C 473.23453,237.13714 487.931,219.293 512,217 v -26 c -24.069,-2.293 -38.76547,-20.13714 -47.48047,-48.36914 -8.687,-28.145 -9.89089,-62.663547 -8.96289,-89.310548 C 456.52264,25.580312 434.90931,0 405.69531,0 Z m 71.55859,95.457031 h 88.74023 c 39.44001,0 65.32227,21.355669 65.32227,54.138669 0,23.008 -17.40875,43.60975 -39.59375,47.21875 v 1.20313 c 30.196,3.309 50.53125,24.21098 50.53125,53.08398 0,38.197 -28.49987,61.35547 -75.79687,61.35547 h -89.20313 z m 34.50977,27.519529 v 64.81446 h 38.66992 c 29.888,0 46.37304,-12.03016 46.37304,-33.53516 0,-20.151 -14.17285,-31.2793 -39.13085,-31.2793 z m 0,90.53125 v 71.42969 h 47.60546 c 31.121,0 47.60547,-12.48241 47.60547,-35.94141 0,-23.46 -16.94642,-35.48828 -49.60742,-35.48828 z" />
</svg>
