<?xml version="1.0" encoding="UTF-8" standalone="no"?>
<svg
   xmlns:dc="http://purl.org/dc/elements/1.1/"
   xmlns:cc="http://creativecommons.org/ns#"
   xmlns:rdf="http://www.w3.org/1999/02/22-rdf-syntax-ns#"
   xmlns:svg="http://www.w3.org/2000/svg"
   xmlns="http://www.w3.org/2000/svg"
   xmlns:sodipodi="http://sodipodi.sourceforge.net/DTD/sodipodi-0.dtd"
   xmlns:inkscape="http://www.inkscape.org/namespaces/inkscape"
   width="800px"
   height="800px"
   viewBox="0 0 32 32"
   version="1.1"
   id="svg6"
   sodipodi:docname="ejs.svg"
   inkscape:version="1.0.2 (e86c870879, 2021-01-15)">
  <metadata
     id="metadata12">
    <rdf:RDF>
      <cc:Work
         rdf:about="">
        <dc:format>image/svg+xml</dc:format>
        <dc:type
           rdf:resource="http://purl.org/dc/dcmitype/StillImage" />
      </cc:Work>
    </rdf:RDF>
  </metadata>
  <defs
     id="defs10" />
  <sodipodi:namedview
     pagecolor="#ffffff"
     bordercolor="#666666"
     borderopacity="1"
     objecttolerance="10"
     gridtolerance="10"
     guidetolerance="10"
     inkscape:pageopacity="0"
     inkscape:pageshadow="2"
     inkscape:window-width="1920"
     inkscape:window-height="1056"
     id="namedview8"
     showgrid="false"
     inkscape:zoom="1.0925"
     inkscape:cx="403.20366"
     inkscape:cy="400"
     inkscape:window-x="0"
     inkscape:window-y="0"
     inkscape:window-maximized="1"
     inkscape:current-layer="svg6" />
  <title
     id="title2">file_type_ejs</title>
  <path
     d="M2,17.672V14.328l11.86-6.2V11.2L5.1,15.939l8.762,4.835v3.1Zm27.814-8.88L19.465,23.229H15.912L26.281,8.791ZM26.947,21.5a.794.794,0,0,0,.619-.278,1.061,1.061,0,0,0,.248-.732,1.141,1.141,0,0,0-.248-.753.768.768,0,0,0-1.217,0,1.141,1.141,0,0,0-.248.753,1.09,1.09,0,0,0,.237.732A.763.763,0,0,0,26.947,21.5Zm2.186,1.042a3.237,3.237,0,0,1-4.352-.01,2.864,2.864,0,0,1,0-4.1,3.223,3.223,0,0,1,4.352,0A2.773,2.773,0,0,1,30,20.486,2.74,2.74,0,0,1,29.134,22.538ZM18.821,13.061a.794.794,0,0,0,.619-.278,1.061,1.061,0,0,0,.248-.732,1.141,1.141,0,0,0-.248-.753.769.769,0,0,0-1.217,0,1.141,1.141,0,0,0-.248.753,1.09,1.09,0,0,0,.237.732A.763.763,0,0,0,18.821,13.061ZM21.007,14.1a3.237,3.237,0,0,1-4.352-.01,2.864,2.864,0,0,1,0-4.1,3.223,3.223,0,0,1,4.352,0,2.773,2.773,0,0,1,.866,2.063A2.74,2.74,0,0,1,21.007,14.1Z"
     style="fill:#ffffff"
     id="path4" />
</svg>
