<svg width="256" height="256" viewBox="0 0 256 256" fill="none" xmlns="http://www.w3.org/2000/svg">
<path d="M183.04 94.0005C190.44 89.4254 196.147 82.5613 199.293 74.4496C202.44 66.3379 202.855 57.4213 200.476 49.0523C198.096 40.6834 193.052 33.3189 186.108 28.0761C179.165 22.8332 170.701 19.9982 162 20.001H94C85.2994 19.9982 76.8352 22.8332 69.8916 28.0761C62.948 33.3189 57.9039 40.6834 55.5244 49.0523C53.145 57.4213 53.5601 66.3379 56.7067 74.4496C59.8533 82.5613 65.5598 89.4254 72.9604 94.0005C67.1638 97.5814 62.3789 102.585 59.0604 108.536C55.7419 114.487 53.9999 121.187 54 128C54.0001 134.814 55.7422 141.514 59.0609 147.465C62.3796 153.416 67.1646 158.419 72.9614 162C67.0359 165.667 62.1714 170.819 58.85 176.945C55.5286 183.071 53.8656 189.959 54.0258 196.926C54.1859 203.893 56.1637 210.697 59.7632 216.664C63.3626 222.631 68.4587 227.554 74.5466 230.945C80.6344 234.336 87.5027 236.077 94.4708 235.996C101.439 235.916 108.265 234.016 114.273 230.484C120.28 226.953 125.261 221.914 128.721 215.865C132.182 209.816 134.001 202.968 134 195.999V156.529C138.013 160.472 142.813 163.523 148.086 165.484C153.359 167.444 158.986 168.27 164.6 167.907C170.214 167.544 175.688 166 180.664 163.377C185.641 160.753 190.007 157.109 193.479 152.682C196.951 148.256 199.449 143.146 200.811 137.688C202.173 132.23 202.367 126.546 201.382 121.007C200.397 115.468 198.254 110.2 195.093 105.546C191.932 100.892 187.825 96.9582 183.04 94.0005V94.0005ZM190 60.001C189.992 67.421 187.042 74.5351 181.797 79.7837C176.552 85.0322 169.44 87.9871 162.02 88.0005L162 88L161.961 88.001L134 88V32.001H162C169.424 32.0093 176.541 34.962 181.79 40.2112C187.039 45.4604 189.992 52.5775 190 60.001V60.001ZM66 60.001C66.0083 52.5775 68.961 45.4604 74.2102 40.2112C79.4594 34.962 86.5765 32.0093 94 32.001H122V88H94L93.981 88.0005C86.5609 87.9871 79.4487 85.0324 74.2036 79.7838C68.9585 74.5352 66.0084 67.4211 66 60.001V60.001ZM66 128C66.0084 120.58 68.9585 113.466 74.2036 108.217C79.4487 102.969 86.5609 100.014 93.981 100L94 100.001L122 100V155.999L94 156C86.5765 155.992 79.4594 153.039 74.2102 147.79C68.961 142.541 66.0083 135.423 66 128V128ZM94 223.999C90.3211 224.002 86.6776 223.28 83.2778 221.874C79.878 220.469 76.7886 218.407 74.1861 215.806C71.5836 213.206 69.519 210.118 68.1104 206.72C66.7018 203.321 65.9768 199.678 65.9768 195.999C65.9768 192.321 66.7018 188.678 68.1104 185.279C69.519 181.88 71.5836 178.793 74.1861 176.192C76.7886 173.592 79.878 171.53 83.2778 170.125C86.6776 168.719 90.3211 167.997 94 168L122 167.999V195.999C121.992 203.423 119.039 210.54 113.79 215.789C108.54 221.038 101.423 223.991 94 223.999V223.999ZM162 156C154.579 155.998 147.462 153.05 142.213 147.803C136.965 142.557 134.014 135.441 134.009 128.02C134.003 120.599 136.945 113.479 142.186 108.225C147.428 102.971 154.54 100.013 161.961 100.001H162L162.019 100C169.44 100.01 176.554 102.966 181.797 108.218C187.041 113.47 189.984 120.588 189.982 128.01C189.979 135.431 187.031 142.548 181.784 147.796C176.537 153.044 169.421 155.995 162 156V156Z" fill="white"/>
</svg>
