<svg width="21" height="24" viewBox="0 0 21 24" fill="none" xmlns="http://www.w3.org/2000/svg">
<g clip-path="url(#clip0_826_216)">
<path d="M20.6039 11.0647L11.4375 1.89594C11.1838 1.64241 10.8398 1.5 10.4811 1.5C10.1224 1.5 9.77832 1.64241 9.52457 1.89594L7.61863 3.80047L10.0336 6.21547C11.3021 5.78703 12.503 7.00156 12.0675 8.26296L14.3953 10.5908C15.9999 10.0377 17.2632 12.0439 16.058 13.2481C14.8163 14.4898 12.7669 13.1136 13.433 11.4978L11.2603 9.32796V15.0397C12.4463 15.6275 12.3038 17.0014 11.686 17.6178C11.3841 17.9195 10.9748 18.0889 10.5481 18.0889C10.1213 18.0889 9.71204 17.9195 9.41019 17.6178C8.5866 16.7928 8.89129 15.4189 9.93754 14.9928V9.22718C8.96254 8.82828 8.78441 7.78625 9.06379 7.11781L6.68301 4.73422L0.396131 11.022C0.14249 11.2757 0 11.6198 0 11.9785C0 12.3372 0.14249 12.6813 0.396131 12.935L9.56535 22.1037C9.81902 22.3572 10.163 22.4996 10.5216 22.4996C10.8802 22.4996 11.2242 22.3572 11.4778 22.1037L20.6039 12.9776C20.8576 12.724 21.0001 12.3799 21.0001 12.0212C21.0001 11.6624 20.8576 11.3184 20.6039 11.0647Z" fill="white"/>
</g>
<defs>
<clipPath id="clip0_826_216">
<rect width="21" height="24" fill="white"/>
</clipPath>
</defs>
</svg>
