<svg width="203" height="203" viewBox="0 0 203 203" fill="none" xmlns="http://www.w3.org/2000/svg">
<path d="M91.0599 1.05478C77.3366 2.00351 63.4242 0.725351 49.682 1.32708C36.5747 1.90102 24.5119 4.05606 14.4124 13.1905C2.4982 23.9661 0.422711 39.1195 0.422711 54.3379V139.261C0.422711 153.455 -0.47174 168.658 7.33163 181.23C9.45971 184.658 12.052 187.725 15.0035 190.473C27.8533 202.437 45.508 202.116 61.8983 202.116H123.965C135.717 202.116 147.737 202.802 159.432 201.688C177.45 199.972 193.632 189.977 199.227 171.969C202.965 159.942 201.992 146.772 201.992 134.335V75.6179C201.992 67.3469 202.163 59.0443 201.803 50.7912C201.322 39.8174 200.321 29.5037 194.095 20.0534C192.402 17.4831 190.109 15.1221 187.805 13.101C184.798 10.4633 181.565 8.07229 177.953 6.31186C165.66 0.320234 151.454 1.1378 138.152 1.1378H121.01C111.091 1.1378 100.951 0.370985 91.0599 1.05478M101.109 163.102H58.3517H48.3028C45.9984 163.102 43.7092 163.176 41.8007 161.648C38.9859 159.396 39.2391 156.302 39.2391 153.054V134.926V66.1601V49.4119C39.2391 46.6818 38.8509 43.7207 40.8518 41.5381C43.1662 39.0137 46.1732 39.363 49.288 39.363H67.0213H88.8924C92.0492 39.363 95.8687 38.687 98.5396 40.7279C102.85 44.022 101.109 52.7176 101.109 57.4905V104.779V163.102M139.925 42.8669C141.929 42.9678 142.696 46.571 143.527 48.0327C146.223 52.7758 150.175 56.4931 154.9 59.1795C156.397 60.0307 159.959 60.6208 159.369 63.0067C158.997 64.5133 156.512 64.9917 155.294 65.6198C152.146 67.2442 149.399 69.4654 147.018 72.0712C144.996 74.2849 143.372 76.8092 142.176 79.5586C141.684 80.6906 141.235 82.1643 139.728 82.09C137.771 81.9934 137.013 78.4231 136.179 76.9972C133.464 72.3575 129.562 68.2993 124.753 65.8169C123.253 65.0427 119.731 64.3306 120.285 62.0231C120.642 60.5359 122.969 60.0521 124.162 59.4396C127.377 57.788 130.175 55.6446 132.601 52.9586C134.596 50.7506 136.24 48.2019 137.419 45.4712C137.92 44.3118 138.375 42.7889 139.925 42.8669M101.306 163.102C104.829 158.101 110.374 153.837 114.704 149.507L141.895 122.316L149.383 114.828C151.573 112.638 153.886 110.37 157.264 110.979C162.609 111.943 162.978 116.515 162.978 120.936V150.295C162.978 154.478 163.905 159.465 159.826 162.097C158 163.274 155.79 163.102 153.718 163.102H143.078H101.306Z" fill="white"/>
</svg>
