<svg width="512" height="512" viewBox="0 0 512 512" fill="none" xmlns="http://www.w3.org/2000/svg">
<path d="M239.5 28.5998C184.1 33.1998 134.5 55.2998 96.1 92.3998C60.2 127.2 37.9 168.9 28.8 218.3C26.8 229 26.5 233.8 26.5 256.5C26.6 279.2 26.8 284 28.8 294.5C38 343.3 58.4 382.4 92.5 416.5C154.7 478.8 245.3 500 329.4 472C417.6 442.6 479.7 362 484.9 270.1C487.1 231.6 480 194.2 464 160.3C431.1 90.3998 364.4 41.1998 287.9 30.4998C276.5 28.8998 248.9 27.7998 239.5 28.5998ZM264.3 105.6C275.1 111.1 279.7 123.8 274.5 134C270.3 142.1 260.1 146.9 251 144.9C242.4 143.1 234.1 133.6 234 125.5C234 117.3 239.1 109.2 246.5 105.9C251.5 103.6 260.1 103.5 264.3 105.6ZM159.5 143.9C192 154.5 224.7 165.2 232.2 167.6L246 172.1L245.3 195.9C245 208.9 245 220.9 245.4 222.3L246.1 225.1L256.3 224.8L266.5 224.5L266.8 198.3L267 172.1L339.7 148.1C379.7 134.9 412.5 124.2 412.6 124.3C412.7 124.4 389.2 138.6 360.4 155.9C322.1 178.8 307.8 187.9 307.5 189.4C307.2 190.6 298.3 250.4 287.6 322.5C276.9 394.5 267.9 454.6 267.7 456C267.5 457.4 267.2 410.9 267.1 352.7L267 246.9L256.3 247.2L245.5 247.5V353.9C245.5 412.5 245.4 459.7 245.2 458.9C245.1 458.1 235.5 396.8 224 322.7C212.5 248.5 203 187.7 202.8 187.5C202.6 187.3 178.9 172.9 150 155.5C121.1 138 98.2 124 99 124.2C99.8 124.5 127.1 133.4 159.5 143.9Z" fill="white"/>
</svg>
