<?xml version="1.0" encoding="UTF-8" standalone="no"?>
<svg
   xmlns:dc="http://purl.org/dc/elements/1.1/"
   xmlns:cc="http://creativecommons.org/ns#"
   xmlns:rdf="http://www.w3.org/1999/02/22-rdf-syntax-ns#"
   xmlns:svg="http://www.w3.org/2000/svg"
   xmlns="http://www.w3.org/2000/svg"
   xmlns:sodipodi="http://sodipodi.sourceforge.net/DTD/sodipodi-0.dtd"
   xmlns:inkscape="http://www.inkscape.org/namespaces/inkscape"
   width="48"
   height="48"
   viewBox="0 0 48 48"
   fill="none"
   version="1.1"
   id="svg17"
   sodipodi:docname="mysql.svg"
   inkscape:version="1.0.2 (e86c870879, 2021-01-15)">
  <metadata
     id="metadata21">
    <rdf:RDF>
      <cc:Work
         rdf:about="">
        <dc:format>image/svg+xml</dc:format>
        <dc:type
           rdf:resource="http://purl.org/dc/dcmitype/StillImage" />
      </cc:Work>
    </rdf:RDF>
  </metadata>
  <sodipodi:namedview
     pagecolor="#ffffff"
     bordercolor="#666666"
     borderopacity="1"
     objecttolerance="10"
     gridtolerance="10"
     guidetolerance="10"
     inkscape:pageopacity="0"
     inkscape:pageshadow="2"
     inkscape:window-width="1920"
     inkscape:window-height="1056"
     id="namedview19"
     showgrid="false"
     inkscape:zoom="16.990531"
     inkscape:cx="24.19222"
     inkscape:cy="24"
     inkscape:window-x="0"
     inkscape:window-y="0"
     inkscape:window-maximized="1"
     inkscape:current-layer="svg17" />
  <g
     clip-path="url(#clip0_826_190)"
     id="g10"
     style="fill:#ffffff"
     transform="matrix(1.4038621,0,0,1.4038621,-8.8826571,-12.72931)">
    <path
       d="M 14.6925,34.2348 H 13.393 C 13.3471,32.0413 13.2205,29.9792 13.0136,28.0469 H 13.002 l -1.9785,6.1879 H 10.0342 L 8.06746,28.0469 h -0.0113 c -0.14589,1.8552 -0.2378,3.9179 -0.27597,6.1879 H 6.5957 c 0.07634,-2.7605 0.26819,-5.3484 0.57479,-7.7641 h 1.61063 l 1.87458,5.705 h 0.0115 l 1.8861,-5.705 h 1.5411 c 0.3375,2.8295 0.5368,5.4177 0.5981,7.7641 z m 5.6357,-5.7283 c -0.5291,2.8712 -1.2272,4.9574 -2.0935,6.2596 -0.675,1.0025 -1.4145,1.5042 -2.2198,1.5042 -0.2147,0 -0.4797,-0.0648 -0.7936,-0.1934 v -0.6923 c 0.1535,0.0221 0.3335,0.0347 0.5404,0.0347 0.3762,0 0.6785,-0.1035 0.9091,-0.3109 0.2757,-0.2526 0.4135,-0.5366 0.4135,-0.8508 0,-0.2154 -0.1074,-0.6559 -0.3219,-1.3228 l -1.426,-4.4286 h 1.2766 l 1.0235,3.3122 c 0.23,0.752 0.326,1.2771 0.2875,1.5762 0.5598,-1.4949 0.9507,-3.1248 1.1735,-4.8886 h 1.2307 z"
       fill="white"
       id="path2"
       style="fill:#ffffff" />
    <path
       d="m 37.6264,34.2346 h -3.6913 v -7.7641 h 1.2417 v 6.8083 h 2.4496 z m -4.6576,0.1876 -1.4273,-0.7044 c 0.1265,-0.104 0.2476,-0.2165 0.3565,-0.3468 0.6067,-0.7126 0.9093,-1.7666 0.9093,-3.1625 0,-2.5686 -1.0079,-3.8535 -3.0246,-3.8535 -0.9889,0 -1.7603,0.3259 -2.312,0.9781 -0.6062,0.7131 -0.9087,1.7633 -0.9087,3.1516 0,1.3648 0.2681,2.366 0.8048,3.0011 0.4909,0.5753 1.2309,0.8633 2.2205,0.8633 0.3692,0 0.7079,-0.0452 1.0165,-0.1364 l 1.8582,1.0818 z M 28.3451,32.681 c -0.3144,-0.5058 -0.4716,-1.3179 -0.4716,-2.4376 0,-1.9549 0.5939,-2.9334 1.7829,-2.9334 0.6215,0 1.077,0.234 1.3683,0.7011 0.3139,0.5064 0.4718,1.3113 0.4718,2.4154 0,1.9709 -0.5944,2.9566 -1.7826,2.9566 -0.6218,2e-4 -1.0773,-0.2331 -1.3688,-0.7021 z m -2.3243,-0.5984 c 0,0.6584 -0.2416,1.1985 -0.7242,1.6216 -0.4831,0.4214 -1.131,0.6326 -1.9428,0.6326 -0.7594,0 -1.4956,-0.2426 -2.2083,-0.7252 l 0.3337,-0.6667 c 0.6132,0.3071 1.1684,0.4598 1.6669,0.4598 0.4678,0 0.8334,-0.1038 1.0986,-0.3094 0.2649,-0.2064 0.4229,-0.496 0.4229,-0.8621 0,-0.4613 -0.3217,-0.8555 -0.9118,-1.1857 -0.5442,-0.2988 -1.6325,-0.9236 -1.6325,-0.9236 -0.5898,-0.4299 -0.8851,-0.8914 -0.8851,-1.6518 0,-0.6293 0.2202,-1.1373 0.6609,-1.5237 0.4412,-0.388 1.0105,-0.5814 1.7083,-0.5814 0.7207,0 1.3758,0.1931 1.9659,0.5753 l -0.2993,0.667 c -0.5047,-0.2145 -1.0029,-0.3217 -1.4943,-0.3217 -0.3981,0 -0.7054,0.0957 -0.9191,0.2878 -0.2155,0.1913 -0.3483,0.4362 -0.3483,0.7365 0,0.459 0.3285,0.8583 0.9346,1.195 0.5515,0.2993 1.6669,0.9349 1.6669,0.9349 0.6049,0.4291 0.907,0.8864 0.907,1.6408 z"
       fill="white"
       id="path4"
       style="fill:#ffffff" />
    <path
       d="m 39.1854,23.8702 c -0.7508,-0.019 -1.3322,0.0565 -1.8201,0.263 -0.1408,0.0562 -0.3648,0.0562 -0.3844,0.2342 0.0761,0.0754 0.0849,0.1969 0.1509,0.3009 0.1125,0.1876 0.3086,0.4399 0.4877,0.5715 0.1966,0.1507 0.394,0.2998 0.6009,0.4312 0.3648,0.2257 0.7784,0.357 1.134,0.582 0.2072,0.1309 0.4131,0.3001 0.6205,0.441 0.1019,0.0751 0.1672,0.1969 0.2996,0.2438 V 26.9092 C 40.2082,26.8248 40.1893,26.7028 40.1243,26.6089 L 39.8425,26.3372 C 39.5703,25.9715 39.2321,25.6524 38.8672,25.3902 38.5669,25.1833 37.91,24.9021 37.7882,24.556 l -0.0191,-0.0191 c 0.2064,-0.0193 0.4513,-0.0941 0.6474,-0.1516 0.3192,-0.0842 0.6102,-0.0651 0.9376,-0.1492 0.1507,-0.0377 0.3001,-0.0849 0.4513,-0.1313 V 24.0202 C 39.6356,23.8512 39.5146,23.6267 39.3361,23.467 38.8584,23.0544 38.3321,22.6509 37.7882,22.3131 37.4969,22.125 37.1223,22.004 36.8122,21.844 36.7004,21.7875 36.5121,21.7597 36.4463,21.6657 36.278,21.4593 36.1834,21.1876 36.0613,20.9433 35.7901,20.4278 35.5267,19.8557 35.2927,19.3106 35.1234,18.945 35.0205,18.5799 34.8141,18.2416 33.8473,16.6471 32.7974,15.6813 31.1838,14.7333 30.837,14.536 30.4244,14.4519 29.9837,14.3484 l -0.7038,-0.0372 c -0.1502,-0.0658 -0.3006,-0.2443 -0.4317,-0.3287 -0.5354,-0.3375 -1.9137,-1.0689 -2.3075,-0.1032 -0.2536,0.6105 0.3752,1.2106 0.5912,1.5202 0.1594,0.215 0.3661,0.4596 0.4776,0.7037 0.066,0.1594 0.0846,0.3287 0.1506,0.4972 0.1502,0.4128 0.2906,0.8721 0.4879,1.2573 0.103,0.1963 0.2152,0.4027 0.3468,0.5805 0.0754,0.104 0.2064,0.1499 0.2351,0.3194 -0.1309,0.1869 -0.1412,0.4689 -0.2162,0.7034 -0.3375,1.0599 -0.2057,2.373 0.2727,3.1519 0.1496,0.2346 0.5067,0.7509 0.9843,0.553 0.4229,-0.1688 0.3292,-0.7034 0.4508,-1.1722 0.0278,-0.1133 0.0095,-0.1876 0.0657,-0.2619 v 0.0183 c 0.1309,0.2624 0.263,0.5153 0.3842,0.7785 0.2911,0.4592 0.7978,0.9379 1.2199,1.256 0.2248,0.1698 0.4028,0.46 0.6843,0.5638 V 24.3202 H 32.657 c -0.057,-0.0841 -0.1403,-0.1218 -0.2152,-0.187 -0.1692,-0.169 -0.3565,-0.3755 -0.4879,-0.5628 -0.3932,-0.5256 -0.7413,-1.1074 -1.0501,-1.7078 -0.1512,-0.2913 -0.2815,-0.6097 -0.4033,-0.9005 -0.0568,-0.1122 -0.0568,-0.2815 -0.1509,-0.338 -0.1411,0.2062 -0.3468,0.3847 -0.4498,0.6374 -0.1785,0.404 -0.1971,0.9009 -0.2634,1.4177 l -0.0369,0.0181 c -0.2988,-0.0751 -0.4028,-0.3842 -0.5163,-0.6466 -0.281,-0.6664 -0.3282,-1.7362 -0.0843,-2.5051 0.0652,-0.1966 0.3477,-0.8158 0.235,-1.0032 -0.0565,-0.1795 -0.2443,-0.2817 -0.3473,-0.4231 -0.121,-0.1778 -0.2536,-0.4028 -0.338,-0.6001 -0.225,-0.5251 -0.3382,-1.1069 -0.5805,-1.6318 -0.1133,-0.2445 -0.3099,-0.4977 -0.4691,-0.7229 -0.1788,-0.2531 -0.3754,-0.4314 -0.5168,-0.7315 -0.0467,-0.1032 -0.1123,-0.2719 -0.0372,-0.3842 0.0184,-0.0753 0.0565,-0.1034 0.1314,-0.1223 0.1215,-0.1027 0.4688,0.0279 0.5906,0.0844 0.3478,0.1406 0.6385,0.272 0.9288,0.4688 0.1314,0.0942 0.2722,0.2725 0.4407,0.3194 h 0.1974 c 0.2996,0.0653 0.6373,0.0181 0.9193,0.103 0.497,0.1597 0.9472,0.394 1.351,0.6469 1.2287,0.7791 2.2419,1.8863 2.9259,3.2086 0.1123,0.2155 0.16,0.4129 0.2624,0.6376 0.1977,0.46 0.442,0.9291 0.6381,1.3794 0.1971,0.4407 0.3849,0.8906 0.6664,1.2568 0.1404,0.1968 0.7044,0.3 0.9573,0.4032 0.1871,0.0842 0.4783,0.159 0.6471,0.2622 0.3191,0.1966 0.6371,0.4224 0.9371,0.6386 0.1494,0.1125 0.619,0.347 0.6469,0.5348 z m -9.5688,-8.152 c -0.1295,-0.0013 -0.2586,0.0145 -0.384,0.0472 v 0.0188 h 0.0181 c 0.0756,0.15 0.2069,0.2539 0.3006,0.3847 0.0756,0.1505 0.1411,0.2996 0.2152,0.4498 l 0.0181,-0.0186 c 0.1323,-0.0937 0.1981,-0.2438 0.1981,-0.4691 -0.057,-0.0663 -0.0658,-0.1311 -0.1132,-0.1968 -0.0553,-0.094 -0.1771,-0.1407 -0.2529,-0.216 z"
       fill="white"
       id="path6"
       style="fill:#ffffff" />
    <path
       d="m 40.0786,34.2332 h 0.1943 V 33.282 h -0.2915 l -0.2378,0.6491 -0.2584,-0.6491 h -0.2807 v 0.9512 h 0.1835 v -0.7237 h 0.0103 l 0.2707,0.7237 h 0.1399 l 0.2697,-0.7237 z m -1.5657,0 h 0.2057 v -0.79 h 0.2692 v -0.1615 h -0.7554 v 0.1615 h 0.28 z"
       fill="white"
       id="path8"
       style="fill:#ffffff" />
  </g>
  <defs
     id="defs15">
    <clipPath
       id="clip0_826_190">
      <rect
         width="48"
         height="48"
         fill="white"
         id="rect12" />
    </clipPath>
  </defs>
</svg>
