<svg width="30" height="24" viewBox="0 0 30 24" fill="none" xmlns="http://www.w3.org/2000/svg">
<path d="M14.8266 21.1873C14.7281 21.1873 14.6297 21.1592 14.5406 21.1123L13.6406 20.5779C13.5047 20.5029 13.5703 20.4748 13.6172 20.4607C13.7953 20.3998 13.8328 20.3857 14.025 20.2732C14.0438 20.2639 14.0719 20.2686 14.0906 20.2779L14.7844 20.6904C14.8078 20.7045 14.8453 20.7045 14.8688 20.6904L17.5781 19.1248C17.6016 19.1107 17.6203 19.0826 17.6203 19.0498V15.9232C17.6203 15.8904 17.6063 15.8623 17.5781 15.8482L14.8688 14.2873C14.8453 14.2732 14.8125 14.2732 14.7844 14.2873L12.075 15.8482C12.0469 15.8623 12.0328 15.8951 12.0328 15.9232V19.0498C12.0328 19.0779 12.0516 19.1061 12.075 19.1201L12.8156 19.5467C13.2188 19.7482 13.4672 19.5092 13.4672 19.2748V16.1857C13.4672 16.1436 13.5 16.1061 13.5469 16.1061H13.8891C13.9312 16.1061 13.9688 16.1389 13.9688 16.1857V19.2748C13.9688 19.8139 13.6781 20.1186 13.1672 20.1186C13.0125 20.1186 12.8859 20.1186 12.5438 19.9498L11.8312 19.542C11.6578 19.4389 11.5453 19.2514 11.5453 19.0498V15.9232C11.5453 15.7217 11.6531 15.5295 11.8312 15.4311L14.5406 13.8654C14.7141 13.767 14.9391 13.767 15.1078 13.8654L17.8172 15.4311C17.9906 15.5342 18.1031 15.7217 18.1031 15.9232V19.0498C18.1031 19.2514 17.9953 19.4436 17.8172 19.542L15.1078 21.1076C15.0281 21.1592 14.9297 21.1873 14.8266 21.1873ZM17.0156 18.1029C17.0156 17.517 16.6219 17.3623 15.7875 17.2498C14.9437 17.1373 14.8594 17.0811 14.8594 16.8842C14.8594 16.7201 14.9297 16.5045 15.5531 16.5045C16.1109 16.5045 16.3172 16.6264 16.4016 17.0014C16.4109 17.0389 16.4391 17.0623 16.4766 17.0623H16.8281C16.8516 17.0623 16.8703 17.0529 16.8844 17.0389C16.8984 17.0201 16.9078 17.0014 16.9031 16.9779C16.8469 16.3311 16.4203 16.0311 15.5531 16.0311C14.7797 16.0311 14.3203 16.3592 14.3203 16.9029C14.3203 17.4982 14.7797 17.6576 15.5203 17.7326C16.4062 17.8217 16.4766 17.9482 16.4766 18.1217C16.4766 18.4264 16.2328 18.5529 15.6609 18.5529C14.9438 18.5529 14.7844 18.3748 14.7328 18.0186C14.7281 17.9811 14.6953 17.9529 14.6531 17.9529H14.3016C14.2594 17.9529 14.2219 17.9857 14.2219 18.0326C14.2219 18.4873 14.4703 19.0311 15.6562 19.0311C16.5234 19.0311 17.0156 18.6936 17.0156 18.1029ZM19.5703 15.7545C19.5703 16.0404 19.3359 16.2748 19.05 16.2748C18.7641 16.2748 18.5297 16.0404 18.5297 15.7545C18.5297 15.4592 18.7734 15.2342 19.05 15.2342C19.3312 15.2295 19.5703 15.4592 19.5703 15.7545ZM19.4859 15.7545C19.4859 15.5107 19.2891 15.3186 19.0453 15.3186C18.8062 15.3186 18.6094 15.5107 18.6094 15.7545C18.6094 15.9982 18.8062 16.1951 19.0453 16.1951C19.2891 16.1904 19.4859 15.9936 19.4859 15.7545ZM19.275 16.0451H19.1531C19.1484 16.017 19.1297 15.867 19.1297 15.8623C19.1203 15.8295 19.1109 15.8107 19.0687 15.8107H18.9656V16.0451H18.8531V15.4592H19.0547C19.125 15.4592 19.2609 15.4592 19.2609 15.6139C19.2609 15.7217 19.1906 15.7451 19.1484 15.7592C19.2281 15.7639 19.2328 15.8154 19.2469 15.8904C19.2516 15.9373 19.2609 16.017 19.275 16.0451ZM19.1437 15.6326C19.1437 15.5529 19.0875 15.5529 19.0594 15.5529H18.9656V15.717H19.0547C19.1297 15.717 19.1437 15.6654 19.1437 15.6326ZM6.43594 8.95293C6.43594 8.82637 6.37031 8.71387 6.2625 8.65293L3.38906 6.99824C3.34219 6.97012 3.28594 6.95606 3.22969 6.95137H3.20156C3.14531 6.95137 3.09375 6.97012 3.04219 6.99824L0.173438 8.65293C0.065625 8.71387 0 8.83106 0 8.95293L0.0046875 13.4061C0.0046875 13.467 0.0375 13.5232 0.0890625 13.5561C0.140625 13.5889 0.20625 13.5889 0.2625 13.5561L1.96875 12.5764C2.07656 12.5107 2.14219 12.3982 2.14219 12.2764V10.1951C2.14219 10.0732 2.20781 9.95606 2.31563 9.89512L3.04219 9.47793C3.09844 9.44512 3.15469 9.43106 3.21562 9.43106C3.27656 9.43106 3.3375 9.44512 3.38906 9.47793L4.11563 9.89512C4.22344 9.95606 4.28906 10.0732 4.28906 10.1951V12.2764C4.28906 12.3982 4.35469 12.5154 4.4625 12.5764L6.16875 13.5561C6.22031 13.5889 6.29063 13.5889 6.34219 13.5561C6.39375 13.5279 6.42656 13.467 6.42656 13.4061L6.43594 8.95293ZM22.1484 4.09199V12.3607C22.1484 12.4826 22.0828 12.5998 21.975 12.6607L19.1016 14.3201C18.9937 14.3811 18.8625 14.3811 18.7547 14.3201L15.8812 12.6607C15.7734 12.5998 15.7078 12.4826 15.7078 12.3607V9.04199C15.7078 8.92012 15.7734 8.80293 15.8812 8.74199L18.7547 7.08262C18.8625 7.02168 18.9937 7.02168 19.1016 7.08262L19.8187 7.49512C19.8984 7.54199 20.0016 7.48106 20.0016 7.39199V2.98574C20.0016 2.8545 20.1422 2.77012 20.2594 2.83575L21.9703 3.79199C22.0781 3.84824 22.1484 3.96543 22.1484 4.09199ZM19.9922 10.1342C19.9922 10.1014 19.9734 10.0732 19.95 10.0592L18.9656 9.48731C18.9375 9.47324 18.9047 9.47324 18.8766 9.48731L17.8922 10.0592C17.8641 10.0732 17.85 10.1014 17.85 10.1342V11.2732C17.85 11.3061 17.8688 11.3342 17.8922 11.3482L18.8766 11.9154C18.9047 11.9295 18.9375 11.9295 18.9609 11.9154L19.9453 11.3482C19.9734 11.3342 19.9875 11.3061 19.9875 11.2732V10.1342H19.9922ZM29.8266 10.1014C29.9344 10.0404 30 9.92324 30 9.80137V8.99981C30 8.87793 29.9344 8.76074 29.8266 8.69981L26.9719 7.04043C26.8641 6.97949 26.7328 6.97949 26.625 7.04043L23.7516 8.69981C23.6438 8.76074 23.5781 8.87793 23.5781 8.99981V12.3186C23.5781 12.4451 23.6438 12.5576 23.7516 12.6186L26.6062 14.2451C26.7094 14.3061 26.8406 14.3061 26.9484 14.2451L28.6734 13.2842C28.7906 13.2186 28.7906 13.0498 28.6734 12.9842L25.7812 11.3248C25.725 11.292 25.6922 11.2357 25.6922 11.1748V10.1342C25.6922 10.0732 25.725 10.017 25.7812 9.98418L26.6813 9.46387C26.7328 9.43106 26.8031 9.43106 26.8547 9.46387L27.7547 9.98418C27.8062 10.017 27.8438 10.0732 27.8438 10.1342V10.9498C27.8438 11.0811 27.9891 11.1654 28.1062 11.0998L29.8266 10.1014ZM26.2031 10.2654C26.1844 10.2795 26.1703 10.2982 26.1703 10.3217V10.9592C26.1703 10.9826 26.1844 11.0061 26.2031 11.0154L26.7562 11.3342C26.775 11.3482 26.8031 11.3482 26.8219 11.3342L27.375 11.0154C27.3937 11.0014 27.4078 10.9826 27.4078 10.9592V10.3217C27.4078 10.2982 27.3937 10.2748 27.375 10.2654L26.8219 9.94668C26.8031 9.93262 26.775 9.93262 26.7562 9.94668L26.2031 10.2654ZM14.2875 12.3045V9.00449C14.2875 8.88262 14.2125 8.76543 14.1047 8.70449L11.2406 7.05449C11.1422 6.99824 11.0062 6.98887 10.8937 7.05449L8.02969 8.70449C7.92188 8.76543 7.84687 8.87793 7.84687 9.00449V12.3045C7.84687 12.4357 7.93594 12.5482 8.03437 12.6045L10.9031 14.2545C11.0156 14.3201 11.1469 14.3154 11.25 14.2545L14.1094 12.6045C14.1938 12.5576 14.2547 12.4779 14.2781 12.3842C14.2828 12.3607 14.2875 12.3326 14.2875 12.3045ZM10.8047 6.44981L10.7672 6.47324H10.8188L10.8047 6.44981ZM14.3766 12.5529L14.3578 12.5201V12.5623L14.3766 12.5529Z" fill="white"/>
</svg>
