<svg width="30" height="24" viewBox="0 0 30 24" fill="none" xmlns="http://www.w3.org/2000/svg">
<path d="M15 4.89834C23.0344 4.89834 29.2125 8.28271 29.2125 11.9999C29.2125 15.7171 23.0297 19.1014 15 19.1014C6.96563 19.1014 0.7875 15.7171 0.7875 11.9999C0.7875 8.28271 6.97031 4.89834 15 4.89834ZM15 4.11084C6.71719 4.11084 0 7.64052 0 11.9999C0 16.3593 6.71719 19.8889 15 19.8889C23.2828 19.8889 30 16.3593 30 11.9999C30 7.64052 23.2828 4.11084 15 4.11084ZM10.2281 11.3671C9.85781 13.2655 8.55 13.0686 6.94219 13.0686L7.58438 9.75927C9.36563 9.75927 10.575 9.56708 10.2281 11.3671ZM4.56563 16.4202H6.28594L6.69375 14.3202C8.62031 14.3202 9.81563 14.4608 10.9219 13.4249C12.1453 12.2999 12.4641 10.2983 11.5922 9.29521C11.1375 8.77021 10.4062 8.5124 9.4125 8.5124H6.09844L4.56563 16.4202ZM13.2703 6.40771H14.9813L14.5734 8.50771C16.05 8.50771 17.4188 8.3999 18.0797 9.00927C18.7734 9.64677 18.4406 10.4624 17.6906 14.3108H15.9562C16.6781 10.589 16.8141 10.2796 16.5516 9.99833C16.2984 9.72646 15.7219 9.78271 14.3297 9.78271L13.4484 14.3108H11.7375L13.2703 6.40771ZM23.6719 11.3671C23.2969 13.2936 21.9516 13.0686 20.3859 13.0686L21.0281 9.75927C22.8188 9.75927 24.0187 9.56708 23.6719 11.3671ZM18.0094 16.4202H19.7344L20.1422 14.3202C22.1672 14.3202 23.2875 14.4374 24.3703 13.4249C25.5938 12.2999 25.9125 10.2983 25.0406 9.29521C24.5859 8.77021 23.8547 8.5124 22.8609 8.5124H19.5469L18.0094 16.4202Z" fill="white"/>
</svg>
