<svg width="24" height="24" viewBox="0 0 24 24" fill="none" xmlns="http://www.w3.org/2000/svg">
<path d="M12 24C18.627 24 24 18.627 24 12C24 5.373 18.627 0 12 0C5.373 0 0 5.373 0 12C0 18.627 5.373 24 12 24ZM6.411 6.759C7.96 5.31 10.115 4.199 12.104 3.492C15.449 2.303 18.984 3.004 19.526 5.137L19.453 5.07C19.978 7.17 18.163 9.676 15.839 10.575C13.769 11.384 12.043 11.25 11.339 11.025C10.528 10.755 10.063 10.23 9.943 9.93C9.898 9.81 9.823 9.615 9.943 9.555C10.018 9.509 10.048 9.524 10.257 9.749C10.453 9.96 11.218 10.529 12.688 10.364C16.543 9.93 18.852 6.944 18.119 5.34C17.609 4.215 14.653 3.704 10.948 5.55C6.433 7.8 6.178 9.659 6.148 10.364C6.043 12.299 8.548 13.319 9.898 14.774C9.942 14.804 9.973 14.834 10.003 14.879C10.407 14.714 10.978 14.639 11.878 14.623C14.067 14.594 15.298 16.033 15.253 17.323C15.208 18.344 14.277 18.764 14.112 18.794C13.993 18.809 13.917 18.809 13.902 18.719C13.888 18.658 13.933 18.629 14.083 18.538C14.234 18.448 14.667 18.133 14.757 17.594C14.848 17.054 14.428 15.734 12.327 15.494C11.577 15.403 10.993 15.463 10.497 15.598C10.859 16.393 10.933 18.013 10.093 19.274C9.223 20.563 7.603 21.359 6.028 20.923C5.518 20.789 4.738 19.738 5.413 18.268C6.043 16.872 8.732 15.523 9.099 15.343V15.337C7.853 14.264 4.823 12.818 4.396 10.607C4.275 9.98 4.568 8.48 6.411 6.759Z" fill="white"/>
<path d="M6.80294 19.761C7.22094 20.003 8.19494 19.715 8.89294 18.956C9.12194 18.706 9.30794 18.436 9.44794 18.146C9.47394 18.09 9.50194 18.031 9.52594 17.97L9.59094 17.79C9.77094 17.246 9.78994 16.643 9.61494 15.998L9.50694 16.059V16.062C9.50694 16.062 8.25794 16.653 7.38694 17.571C6.57694 18.426 6.35294 19.499 6.80294 19.761Z" fill="white"/>
</svg>
