<?xml version="1.0" encoding="UTF-8" standalone="no"?>
<svg
   xmlns:dc="http://purl.org/dc/elements/1.1/"
   xmlns:cc="http://creativecommons.org/ns#"
   xmlns:rdf="http://www.w3.org/1999/02/22-rdf-syntax-ns#"
   xmlns:svg="http://www.w3.org/2000/svg"
   xmlns="http://www.w3.org/2000/svg"
   xmlns:sodipodi="http://sodipodi.sourceforge.net/DTD/sodipodi-0.dtd"
   xmlns:inkscape="http://www.inkscape.org/namespaces/inkscape"
   width="300"
   height="250"
   viewBox="0 0 300 250"
   fill="none"
   version="1.1"
   id="svg24"
   sodipodi:docname="zbrush.svg"
   inkscape:version="1.0.2 (e86c870879, 2021-01-15)">
  <metadata
     id="metadata30">
    <rdf:RDF>
      <cc:Work
         rdf:about="">
        <dc:format>image/svg+xml</dc:format>
        <dc:type
           rdf:resource="http://purl.org/dc/dcmitype/StillImage" />
      </cc:Work>
    </rdf:RDF>
  </metadata>
  <defs
     id="defs28" />
  <sodipodi:namedview
     pagecolor="#ffffff"
     bordercolor="#666666"
     borderopacity="1"
     objecttolerance="10"
     gridtolerance="10"
     guidetolerance="10"
     inkscape:pageopacity="0"
     inkscape:pageshadow="2"
     inkscape:window-width="1920"
     inkscape:window-height="1056"
     id="namedview26"
     showgrid="false"
     inkscape:zoom="3.0510179"
     inkscape:cx="151.00114"
     inkscape:cy="127.23043"
     inkscape:window-x="0"
     inkscape:window-y="0"
     inkscape:window-maximized="1"
     inkscape:current-layer="svg24" />
  <path
     d="m 162.08503,9.6308896 c -4.09981,1.9837764 -9.78662,10.3156374 -9.78662,14.2831904 0,3.835302 3.70304,9.522128 7.27383,11.109149 4.09981,1.851525 17.72175,2.116029 22.35055,0.264503 2.90955,-1.058013 3.43855,-2.116027 3.43855,-6.348085 0,-6.612587 -6.34808,-16.399219 -12.43166,-19.3087574 -5.42232,-2.5127845 -5.68683,-2.5127845 -10.84465,0 z m -1.85152,7.6706024 c -2.11603,5.554574 -1.58702,9.654379 1.45477,12.563918 3.43854,3.174042 9.52213,4.893315 10.18338,2.909539 0.52901,-1.719273 7.80286,-1.983777 8.72862,-0.264504 0.39676,0.66126 -3.04179,1.587022 -7.6706,2.116029 -9.12537,0.925762 -15.47346,-1.058015 -17.19273,-5.290071 -1.58703,-4.232057 -0.79351,-9.654379 1.98377,-13.092925 3.30629,-4.232058 4.36431,-3.835302 2.51279,1.058014 z m 10.58014,-2.512784 c 2.11603,2.645036 0.13225,5.025567 -3.04179,3.835301 -2.24828,-0.79351 -2.90954,-3.306294 -1.32252,-4.893316 1.32252,-1.454769 2.51279,-1.058014 4.36431,1.058015 z"
     fill="white"
     id="path2"
     style="fill:#ffffff;stroke-width:1.32252" />
  <path
     d="m 126.2448,43.883966 c -11.37365,2.512783 -20.49903,7.670602 -31.079158,17.721737 -9.389875,8.728617 -18.250611,19.837766 -18.250611,22.615054 0,2.512783 8.992988,0.925762 17.589355,-3.041791 6.744834,-3.041791 7.141594,-3.570798 7.935104,-8.860869 0.529,-3.835302 2.11603,-7.009343 5.15781,-10.315638 2.38054,-2.512784 3.5708,-4.099806 2.51279,-3.570799 -1.32252,0.793512 -1.58702,0.529008 -0.79352,-0.661258 0.52901,-0.925762 3.43855,-2.645035 6.48034,-3.967553 4.36431,-1.851525 7.00935,-2.116028 13.48968,-1.322518 4.36431,0.529007 9.38987,1.719273 11.2414,2.645036 2.38053,1.322517 21.02803,13.48968 23.40857,15.208953 0.2645,0.264504 -3.30629,3.835302 -7.80286,8.067359 -4.49656,4.364308 -10.7124,11.109148 -13.75419,15.076706 -5.15781,6.612575 -6.48033,7.538345 -15.3412,10.447885 -28.96313,9.25748 -58.719644,30.81452 -67.977268,48.93301 -4.893316,9.91889 -3.967553,11.2414 7.009343,10.31565 9.257625,-0.66127 20.498894,-4.49657 19.308628,-6.3481 -0.396756,-0.66125 0.132251,-0.7935 1.058013,-0.52901 1.058014,0.39676 2.90954,-0.26449 4.364309,-1.45476 1.45477,-1.05801 1.719273,-1.58702 0.661259,-1.05801 -3.438546,1.58702 0.132251,-1.32252 9.918876,-8.06736 5.81908,-4.09981 8.33186,-5.29007 6.61259,-3.30629 -1.45477,1.85151 1.05802,0.13224 5.55457,-3.70305 4.49656,-3.96756 10.58014,-9.91889 13.48968,-13.35744 4.89331,-5.81907 5.95133,-6.48034 12.29942,-7.14159 15.60571,-1.45478 50.25567,4.23205 62.95185,10.44788 8.99311,4.36432 11.5059,8.06737 10.31563,15.20896 -0.66126,3.8353 -0.2645,6.34809 1.05801,8.46412 2.51278,3.8353 15.73797,14.01869 23.14407,17.98623 7.14159,3.70305 8.99311,2.24829 6.74484,-5.02556 -5.15782,-16.39922 -27.11162,-41.92381 -44.30435,-51.44594 -14.67995,-8.06735 -31.47592,-13.886295 -41.1303,-14.150794 -4.62881,-0.132259 -8.46412,-0.661266 -8.46412,-1.322522 0,-0.529007 4.36432,-5.819074 9.78663,-11.902657 9.78664,-10.976897 10.7124,-11.505904 18.64751,-9.65438 2.24827,0.529008 0.66125,-0.396755 -3.43855,-2.24828 -6.48034,-2.645035 -30.28566,-18.6475 -30.28566,-20.10227 0,-0.396754 3.70305,1.851526 8.33186,4.761065 7.80286,5.157819 26.58261,14.679947 29.3599,14.94445 0.79351,0.132251 1.19027,1.190266 1.19027,2.512784 -0.39676,4.893315 12.56391,1.58702 21.68929,-5.686826 7.9351,-6.215834 12.43166,-12.299415 12.56392,-16.663724 0,-3.306295 -3.70305,-8.464114 -6.08359,-8.464114 -0.7935,0 -0.2645,0.925763 1.19027,2.116029 2.51278,1.983776 2.51278,2.116028 -0.13225,1.190266 -1.45478,-0.529007 -4.36431,-1.454769 -6.6126,-1.983776 l -3.96754,-1.058015 3.8353,-0.132252 c 2.11602,-0.132252 3.57079,-0.529006 3.04179,-0.925762 -1.58702,-1.719273 -9.91888,0.925762 -17.32498,5.422322 -7.00935,4.232057 -7.93512,4.49656 -11.10916,2.777287 -1.98377,-1.058014 -8.72861,-3.703049 -15.0767,-5.819077 -14.15094,-5.025568 -27.50836,-6.215834 -39.01427,-3.570798 z m 36.63374,6.744841 c 13.88643,5.819077 26.3181,10.712393 29.6244,11.770407 1.32251,0.396755 2.11603,1.058014 1.85152,1.45477 -1.45477,1.322517 -18.38299,-3.438546 -26.3181,-7.4061 -4.49656,-2.24828 -13.22518,-5.95133 -19.44101,-8.067358 l -11.50591,-3.967553 7.27385,0.79351 c 3.96756,0.529008 12.29942,2.909539 18.51525,5.422324 z m 48.80091,1.719273 c 1.58702,1.058014 1.58702,1.58702 0.2645,3.306294 -1.05801,1.190266 -1.32251,2.116028 -0.66126,2.116028 2.51279,0.132251 -5.29007,5.290071 -7.9351,5.290071 -1.98378,0 -1.32252,-0.793511 2.51277,-2.645035 l 5.29008,-2.512785 -6.21583,0.793512 c -6.61259,0.79351 -12.96067,-0.264505 -12.96067,-2.116029 0,-1.851525 8.33186,-4.628812 15.8702,-5.157819 1.05802,-0.132252 2.7773,0.264504 3.83531,0.925763 z M 98.868685,67.29253 c -3.703043,8.728616 -4.23205,9.654379 -6.61258,10.051135 -1.983777,0.396755 -1.719273,-0.529008 1.322517,-6.612589 1.851528,-3.835302 4.0998,-7.802855 4.893316,-8.728617 2.512782,-3.041791 2.645042,-0.264504 0.396747,5.290071 z m 99.188825,5.686826 c -2.38053,1.851524 -10.05113,2.777287 -10.05113,1.322517 0,-0.661258 7.80285,-3.04179 10.58014,-3.174042 1.45477,0 1.32252,0.396756 -0.52901,1.851525 z m -28.03737,31.872664 c 8.59636,2.24815 30.81466,12.03478 29.62439,13.0928 -0.39675,0.39674 -4.49655,-1.05802 -9.12537,-3.17404 -10.97689,-5.15782 -21.02802,-7.67061 -34.91446,-8.86087 -6.21584,-0.52901 -11.63816,-1.45464 -12.03491,-1.98364 -1.19028,-1.98378 17.85398,-1.32252 26.45035,0.92575 z m -40.33679,11.63803 c -0.2645,0.26449 -2.90955,0.7935 -5.81908,1.19026 -3.70305,0.66125 -4.49656,0.52901 -2.64503,-0.39676 2.51278,-1.05801 9.65437,-1.85152 8.46411,-0.7935 z m -11.77042,7.53834 c -1.45476,1.98378 -6.08357,6.48034 -10.18338,10.05114 -15.473445,13.35743 -29.095246,21.55704 -35.707834,21.55704 -2.909539,0 -3.306295,0.26451 -1.719273,1.45477 1.58702,1.05801 1.454769,1.32251 -0.661259,0.92577 -2.116029,-0.39676 -2.512784,-1.32253 -2.24828,-5.02558 0.264503,-2.51278 1.454769,-6.08358 2.645035,-7.9351 1.190265,-1.85153 2.777287,-4.49656 3.570798,-5.95134 0.79351,-1.45476 2.380532,-2.64503 3.570798,-2.64503 1.190266,0 2.645036,-0.52901 3.306294,-1.19026 0.661259,-0.66126 0.264503,-0.79352 -0.925763,-0.26451 -5.157819,2.51278 4.099673,-3.8353 9.918752,-6.74483 9.654376,-5.02557 19.044252,-7.93512 25.392332,-7.93512 h 5.55457 z m 104.08215,14.15095 c 1.71928,4.23206 1.32252,7.53835 -0.7935,6.21583 -0.66126,-0.2645 -1.45478,-2.51278 -1.98378,-4.76107 -0.39676,-2.38052 -2.38054,-6.34808 -4.36431,-8.99312 l -3.43855,-4.76106 4.36431,3.96756 c 2.38053,2.11603 5.15782,5.95132 6.21583,8.33186 z m 4.09981,14.15094 c 3.17404,5.02556 1.85153,6.21583 -2.38053,1.98378 -2.64503,-2.64505 -3.5708,-6.6126 -1.58702,-6.6126 0.52901,0 2.24828,2.11603 3.96755,4.62882 z m 3.5708,9.78663 3.96755,3.04178 -3.96755,-2.24827 c -6.08359,-3.5708 -15.20895,-11.24141 -15.20895,-12.82843 0,-0.7935 2.51278,0.92577 5.68682,3.70306 3.04179,2.90953 7.4061,6.61258 9.52213,8.33186 z"
     fill="white"
     id="path4"
     style="fill:#ffffff;stroke-width:1.32252" />
  <path
     d="m 95.43015,126.54118 c -1.058013,0.66125 -1.322521,1.32252 -0.661266,1.32252 0.793516,0 2.248287,-0.66127 3.306296,-1.32252 1.058014,-0.66126 1.454771,-1.32251 0.661256,-1.32251 -0.661256,0 -2.248272,0.66125 -3.306286,1.32251 z"
     fill="#ffffff"
     id="path6"
     style="stroke-width:1.32252;fill:#ffffff" />
  <path
     d="m 84.055172,132.62476 c -2.37987,1.85152 -2.37987,1.98378 0.529007,0.52901 1.587022,-0.79352 2.909539,-1.71927 2.909539,-1.98378 0,-1.05801 -0.661258,-0.7935 -3.438546,1.45477 z"
     fill="#ffffff"
     id="path8"
     style="stroke-width:1.32252;fill:#ffffff" />
  <path
     d="m 99.662201,148.23047 c -6.083579,4.36431 -7.009342,5.68683 -1.85153,2.64504 2.512789,-1.32253 5.025579,-3.30629 5.819079,-4.23206 1.98378,-2.24828 1.05801,-1.85153 -3.967549,1.58702 z"
     fill="#ffffff"
     id="path10"
     style="stroke-width:1.32252;fill:#ffffff" />
  <path
     d="m 16.078818,202.58595 c 0,3.17404 0.132253,3.17404 14.547695,3.5708 l 14.415444,0.39675 -16.531472,13.88644 c -14.547695,12.29941 -16.39922,14.28319 -16.134716,17.58948 l 0.396756,3.70305 h 25.127836 25.127837 v -3.04178 c 0,-3.04179 -0.264503,-3.04179 -17.721738,-3.70306 l -17.589485,-0.66126 17.324982,-14.54769 c 12.69617,-10.71239 17.324982,-15.3412 17.324982,-17.58948 0,-2.90954 0,-2.90954 -23.14406,-2.90954 H 16.078818 Z"
     fill="white"
     id="path12"
     style="fill:#ffffff;stroke-width:1.32252" />
  <path
     d="m 67.657274,220.30768 v 20.89578 l 5.951331,0.79352 c 8.99312,1.32251 35.178965,-0.52901 39.940025,-2.64504 8.33186,-3.83529 8.86087,-14.41544 0.79352,-17.85398 -5.15782,-2.24829 -5.15782,-2.24829 -1.98378,-4.49657 4.3643,-3.04179 5.81907,-6.48033 4.23205,-10.44789 -2.24827,-5.81907 -8.1996,-7.27384 -29.756638,-7.27384 H 67.657274 Z m 36.236986,-12.2994 c 1.58702,1.45476 1.71927,2.64503 0.7935,4.49655 -1.58702,3.04179 -7.406096,4.23205 -17.19272,3.70305 l -7.273847,-0.39675 -0.396755,-5.02557 -0.396756,-4.89331 h 11.241401 c 8.331862,0 11.638157,0.529 13.225177,2.11603 z m 0.52901,17.19273 c 3.17403,2.24827 3.83529,5.68682 1.3225,8.1996 -1.05801,1.05801 -6.083569,1.58702 -13.886421,1.58702 H 79.559934 v -5.95133 -5.95132 h 10.976898 c 7.802846,0 11.770408,0.66125 13.886438,2.11603 z"
     fill="white"
     id="path14"
     style="fill:#ffffff;stroke-width:1.32252" />
  <path
     d="m 122.27725,225.99451 0.2645,16.13472 3.96755,0.13225 c 3.8353,0 3.96756,-0.2645 4.62882,-6.61258 0.66125,-6.08359 0.92576,-6.6126 4.23205,-7.00935 2.90955,-0.39675 5.29007,1.05801 10.84465,6.34808 6.08359,5.81909 8.06735,6.8771 12.69617,7.1416 2.90954,0 5.29007,-0.2645 5.29007,-0.66126 0,-1.32252 -11.77041,-11.77041 -13.22518,-11.77041 -3.04179,0 -1.05801,-2.38053 2.64504,-3.04179 5.15782,-1.05802 8.46411,-6.08358 6.74484,-10.44789 -1.85153,-4.76106 -7.67061,-6.34809 -24.06982,-6.34809 h -14.41545 z m 28.69863,-8.86087 c 3.17404,3.83531 -0.66125,5.95134 -10.7124,5.95134 h -9.12536 v -3.96756 -3.96756 h 9.12536 c 6.48035,0 9.52214,0.52901 10.7124,1.98378 z"
     fill="white"
     id="path16"
     style="fill:#ffffff;stroke-width:1.32252" />
  <path
     d="m 162.87854,220.30768 c 0,14.41545 1.45478,17.98625 8.72862,20.76353 6.87709,2.64504 19.97002,1.98378 24.86333,-1.19026 3.5708,-2.38054 4.76106,-7.67061 4.76106,-21.16029 v -8.86087 h -4.6288 -4.62881 v 11.63817 c 0,13.48967 -1.58703,16.13471 -9.65439,16.13471 -8.19961,0 -10.18338,-3.3063 -10.18338,-16.53147 v -11.24141 h -4.62881 -4.62882 z"
     fill="white"
     id="path18"
     style="fill:#ffffff;stroke-width:1.32252" />
  <path
     d="m 206.91838,213.03384 c -3.17404,2.77729 -3.43854,3.5708 -2.38053,6.8771 1.05802,3.17404 2.77729,4.23205 8.59636,6.08357 3.96756,1.19027 9.52214,2.64504 12.29942,3.04179 9.78663,1.58702 6.87709,8.59637 -3.5708,8.59637 -3.8353,0 -6.21583,-0.92576 -8.86087,-3.43855 -2.64503,-2.51278 -4.23205,-3.17404 -7.00934,-2.38053 -3.96755,0.92576 -4.0998,1.58702 -1.45477,5.42233 3.70305,5.29007 18.51524,7.27384 28.43413,3.96754 6.21583,-2.11603 8.99313,-7.67059 6.08358,-12.16716 -1.98378,-3.04179 -12.56391,-7.27384 -18.25074,-7.27384 -6.61259,0 -10.31564,-5.55458 -4.62882,-7.1416 5.15783,-1.32252 8.46412,-0.92576 11.90267,1.85153 3.30629,2.64503 9.52212,3.5708 10.71239,1.58702 0.79351,-1.32253 -1.98377,-4.76107 -5.42232,-6.61259 -1.58703,-0.92576 -7.27385,-1.58703 -12.82842,-1.58703 -8.59637,0 -10.44789,0.39676 -13.62194,3.17405 z"
     fill="white"
     id="path20"
     style="fill:#ffffff;stroke-width:1.32252" />
  <path
     d="m 242.49278,225.99451 0.39676,16.13472 h 3.96756 c 3.8353,0 3.96755,-0.2645 4.62881,-7.00934 l 0.66126,-7.00935 h 9.25762 9.25762 l 0.39676,6.61259 c 0.39676,6.21583 0.66125,6.61259 4.36431,7.1416 2.11603,0.39675 4.0998,0.2645 4.49656,0 0.39675,-0.39676 0.66125,-7.80286 0.66125,-16.39923 v -15.60571 h -4.49655 c -4.49656,0 -4.62881,0.13225 -5.02557,6.21584 l -0.39676,6.34808 -9.52212,0.39676 -9.65438,0.39676 v -6.74484 -6.6126 h -4.62881 -4.76106 z"
     fill="white"
     id="path22"
     style="fill:#ffffff;stroke-width:1.32252" />
</svg>
